<?xml version="1.0" encoding="UTF-8"?>
<svg id="Layer_2" data-name="Layer 2" xmlns="http://www.w3.org/2000/svg" viewBox="0 0 1295.38 127.74">
  <defs>
    <style>
      .cls-1 {
        fill: #1f7521;
      }
    </style>
  </defs>
  <g id="Layer_1-2" data-name="Layer 1">
    <g>
      <path class="cls-1" d="M0,14.7h4.5l3.48,14.46,1.98,9.06h.48l2.58-9.12,4.26-14.4h4.44l4.32,14.52,2.52,9h.42l2.04-8.94,3.42-14.58h4.5l-7.98,29.04h-4.2l-7.02-23.76h-.54l-6.96,23.76h-4.2L0,14.7Z"/>
      <path class="cls-1" d="M44.7,14.7h4.5l3.48,14.46,1.98,9.06h.48l2.58-9.12,4.26-14.4h4.44l4.32,14.52,2.52,9h.42l2.04-8.94,3.42-14.58h4.5l-7.98,29.04h-4.2l-7.02-23.76h-.54l-6.96,23.76h-4.2l-8.04-29.04Z"/>
      <path class="cls-1" d="M134.46,29.22c0-8.76,5.82-15.36,13.62-15.36s13.56,6.6,13.56,15.36v1.14h-22.62c.36,6.6,4.08,10.5,9.24,10.5,3.48,0,6.36-1.92,7.86-5.1h4.8c-1.92,5.34-6.72,8.82-12.66,8.82-7.98,0-13.8-6.54-13.8-15.36ZM157.02,26.82c-.72-5.82-4.26-9.24-8.94-9.24s-8.22,3.48-8.94,9.24h17.88Z"/>
      <path class="cls-1" d="M169.8,47.94h4.86c1.5,3.36,4.56,4.98,8.4,4.98,4.68,0,8.22-2.76,8.22-8.82v-5.22h-.36c-1.92,2.7-5.1,4.44-8.94,4.44-7.38,0-13.08-6-13.08-14.7s5.7-14.76,13.08-14.76c3.96,0,7.2,1.62,9,4.32h.36v-3.48h4.38v29.22c0,7.74-5.58,12.66-12.66,12.66s-11.52-3.6-13.26-8.64ZM191.28,34.44v-11.52c-1.74-3.06-4.5-5.28-8.46-5.28-5.4,0-9.24,4.26-9.24,10.98s3.84,10.92,9.24,10.92c3.78,0,6.48-1.86,8.46-5.1Z"/>
      <path class="cls-1" d="M204.84,29.22c0-8.76,5.82-15.36,13.62-15.36s13.56,6.6,13.56,15.36v1.14h-22.62c.36,6.6,4.08,10.5,9.24,10.5,3.48,0,6.36-1.92,7.86-5.1h4.8c-1.92,5.34-6.72,8.82-12.66,8.82-7.98,0-13.8-6.54-13.8-15.36ZM227.4,26.82c-.72-5.82-4.26-9.24-8.94-9.24s-8.22,3.48-8.94,9.24h17.88Z"/>
      <path class="cls-1" d="M245.88,34.08v-15.6h-8.28v-3.78h8.28V3.96h4.44v10.74h9.24v3.78h-9.24v15.48c0,4.02,1.86,5.94,5.7,5.94h3.54v3.84h-3.9c-6.54,0-9.78-3.24-9.78-9.66Z"/>
      <path class="cls-1" d="M266.1,36c0-5.34,4.44-8.22,10.68-9l8.58-1.02v-2.1c0-4.02-2.52-6.42-6.72-6.42-3.42,0-6,1.5-7.32,4.56h-4.8c1.44-4.62,6.18-8.16,12.18-8.16,6.78,0,11.1,4.02,11.1,9.96v11.46c0,2.88,1.56,4.86,4.26,4.86h1.02v3.9h-2.04c-3.42,0-6-1.68-7.02-4.68h-.36c-1.92,3.12-5.1,5.22-9.54,5.22-5.58,0-10.02-3.36-10.02-8.58ZM276.72,40.92c3.84,0,6.54-1.86,8.64-5.46v-6.3l-7.44.9c-4.5.54-7.2,2.34-7.2,5.88,0,3.18,2.58,4.98,6,4.98Z"/>
      <path class="cls-1" d="M306.9,39.96h-.36v3.78h-4.38V0h4.44v18.3h.36c2.04-2.88,5.04-4.44,9-4.44,7.56,0,13.2,6.48,13.2,15.36s-5.64,15.36-13.2,15.36c-4.02,0-7.14-1.56-9.06-4.62ZM324.54,29.22c0-6.84-3.96-11.58-9.42-11.58-4.02,0-6.66,1.92-8.52,5.28v12.6c1.74,3.18,4.68,5.28,8.52,5.28,5.46,0,9.42-4.74,9.42-11.58Z"/>
      <path class="cls-1" d="M338.28,40.08V0h4.44v43.74h-4.44v-3.66Z"/>
      <path class="cls-1" d="M351.83,29.22c0-8.76,5.82-15.36,13.62-15.36s13.56,6.6,13.56,15.36v1.14h-22.62c.36,6.6,4.08,10.5,9.24,10.5,3.48,0,6.36-1.92,7.86-5.1h4.8c-1.92,5.34-6.72,8.82-12.66,8.82-7.98,0-13.8-6.54-13.8-15.36ZM374.39,26.82c-.72-5.82-4.26-9.24-8.94-9.24s-8.22,3.48-8.94,9.24h17.88Z"/>
      <path class="cls-1" d="M385.79,35.7h4.86c1.32,3.72,3.96,5.34,8.28,5.34,3.48,0,6.42-2.04,6.42-5.52,0-2.7-1.5-3.84-5.04-4.44l-5.1-.78c-4.32-.72-8.04-2.94-8.04-7.86s4.68-8.58,10.68-8.58c6.36,0,10.56,3.06,12,8.1h-4.86c-1.2-3.3-3.84-4.56-7.2-4.56s-6.06,1.8-6.06,4.92c0,2.58,1.62,3.6,5.1,4.2l5.16.84c4.68.78,7.92,3.12,7.92,7.98,0,5.22-4.62,9.24-10.98,9.24-7.14,0-11.52-3.24-13.14-8.88Z"/>
      <path class="cls-1" d="M435.59,4.8c0-2.22,1.86-4.02,4.08-4.02s4.08,1.8,4.08,4.02-1.86,4.14-4.08,4.14-4.08-1.86-4.08-4.14ZM437.51,40.08V14.7h4.44v29.04h-4.44v-3.66Z"/>
      <path class="cls-1" d="M450.77,35.7h4.86c1.32,3.72,3.96,5.34,8.28,5.34,3.48,0,6.42-2.04,6.42-5.52,0-2.7-1.5-3.84-5.04-4.44l-5.1-.78c-4.32-.72-8.04-2.94-8.04-7.86s4.68-8.58,10.68-8.58c6.36,0,10.56,3.06,12,8.1h-4.86c-1.2-3.3-3.84-4.56-7.2-4.56s-6.06,1.8-6.06,4.92c0,2.58,1.62,3.6,5.1,4.2l5.16.84c4.68.78,7.92,3.12,7.92,7.98,0,5.22-4.62,9.24-10.98,9.24-7.14,0-11.52-3.24-13.14-8.88Z"/>
      <path class="cls-1" d="M500.15,36c0-5.34,4.44-8.22,10.68-9l8.58-1.02v-2.1c0-4.02-2.52-6.42-6.72-6.42-3.42,0-6,1.5-7.32,4.56h-4.8c1.44-4.62,6.18-8.16,12.18-8.16,6.78,0,11.1,4.02,11.1,9.96v11.46c0,2.88,1.56,4.86,4.26,4.86h1.02v3.9h-2.04c-3.42,0-6-1.68-7.02-4.68h-.36c-1.92,3.12-5.1,5.22-9.54,5.22-5.58,0-10.02-3.36-10.02-8.58ZM510.77,40.92c3.84,0,6.54-1.86,8.64-5.46v-6.3l-7.44.9c-4.5.54-7.2,2.34-7.2,5.88,0,3.18,2.58,4.98,6,4.98Z"/>
      <path class="cls-1" d="M554.69,14.7h4.32v3.72h.42c1.92-3,5.04-4.56,9.06-4.56,7.56,0,13.2,6.48,13.2,15.36s-5.64,15.36-13.2,15.36c-3.96,0-6.96-1.62-8.94-4.38h-.42v15.54h-4.44V14.7ZM577.07,29.22c0-6.84-3.96-11.58-9.42-11.58-3.9,0-6.72,1.98-8.52,5.22v12.72c1.8,3.24,4.5,5.22,8.52,5.22,5.46,0,9.42-4.74,9.42-11.58Z"/>
      <path class="cls-1" d="M590.81,14.7h4.38v5.28h.36c1.92-3.96,5.16-6.12,10.8-6.12h2.46v4.2h-2.88c-5.16,0-8.46,2.16-10.68,6.66v19.02h-4.44V14.7Z"/>
      <path class="cls-1" d="M613.43,29.22c0-8.94,6-15.36,13.98-15.36s13.98,6.42,13.98,15.36-6,15.36-13.98,15.36-13.98-6.42-13.98-15.36ZM636.77,29.22c0-6.9-3.9-11.52-9.36-11.52s-9.36,4.62-9.36,11.52,3.9,11.52,9.36,11.52,9.36-4.56,9.36-11.52Z"/>
      <path class="cls-1" d="M643.97,51.9h2.88c4.2,0,5.82-2.76,5.82-6.66V14.7h4.44v30.78c0,6.6-4.32,10.26-9.96,10.26h-3.18v-3.84ZM650.75,4.8c0-2.22,1.86-4.02,4.08-4.02s4.08,1.8,4.08,4.02-1.86,4.14-4.08,4.14-4.08-1.86-4.08-4.14Z"/>
      <path class="cls-1" d="M666.23,29.22c0-8.76,5.82-15.36,13.62-15.36s13.56,6.6,13.56,15.36v1.14h-22.62c.36,6.6,4.08,10.5,9.24,10.5,3.48,0,6.36-1.92,7.86-5.1h4.8c-1.92,5.34-6.72,8.82-12.66,8.82-7.98,0-13.8-6.54-13.8-15.36ZM688.79,26.82c-.72-5.82-4.26-9.24-8.94-9.24s-8.22,3.48-8.94,9.24h17.88Z"/>
      <path class="cls-1" d="M700.49,29.22c0-8.76,5.88-15.36,13.68-15.36,6.36,0,10.92,3.9,12.72,9.6h-4.8c-1.5-3.6-4.2-5.76-7.92-5.76-5.1,0-9.06,4.56-9.06,11.52s3.96,11.52,9.06,11.52c3.72,0,6.42-2.1,7.92-5.76h4.8c-1.8,5.76-6.36,9.6-12.72,9.6-7.8,0-13.68-6.6-13.68-15.36Z"/>
      <path class="cls-1" d="M740.39,34.08v-15.6h-8.28v-3.78h8.28V3.96h4.44v10.74h9.24v3.78h-9.24v15.48c0,4.02,1.86,5.94,5.7,5.94h3.54v3.84h-3.9c-6.54,0-9.78-3.24-9.78-9.66Z"/>
      <path class="cls-1" d="M778.67,14.7h4.5l3.48,14.46,1.98,9.06h.48l2.58-9.12,4.26-14.4h4.44l4.32,14.52,2.52,9h.42l2.04-8.94,3.42-14.58h4.5l-7.98,29.04h-4.2l-7.02-23.76h-.54l-6.96,23.76h-4.2l-8.04-29.04Z"/>
      <path class="cls-1" d="M824.15,4.8c0-2.22,1.86-4.02,4.08-4.02s4.08,1.8,4.08,4.02-1.86,4.14-4.08,4.14-4.08-1.86-4.08-4.14ZM826.07,40.08V14.7h4.44v29.04h-4.44v-3.66Z"/>
      <path class="cls-1" d="M846.65,34.08v-15.6h-8.28v-3.78h8.28V3.96h4.44v10.74h9.24v3.78h-9.24v15.48c0,4.02,1.86,5.94,5.7,5.94h3.54v3.84h-3.9c-6.54,0-9.78-3.24-9.78-9.66Z"/>
      <path class="cls-1" d="M869.15,0h4.44v18.78h.36c1.86-3.12,5.04-4.92,9.06-4.92,6.3,0,10.56,4.14,10.56,11.34v18.54h-4.44v-18.3c0-5.34-2.94-7.68-7.08-7.68-3.36,0-6.24,1.74-8.46,5.4v20.58h-4.44V0Z"/>
      <path class="cls-1" d="M920.51,36c0-5.34,4.44-8.22,10.68-9l8.58-1.02v-2.1c0-4.02-2.52-6.42-6.72-6.42-3.42,0-6,1.5-7.32,4.56h-4.8c1.44-4.62,6.18-8.16,12.18-8.16,6.78,0,11.1,4.02,11.1,9.96v11.46c0,2.88,1.56,4.86,4.26,4.86h1.02v3.9h-2.04c-3.42,0-6-1.68-7.02-4.68h-.36c-1.92,3.12-5.1,5.22-9.54,5.22-5.58,0-10.02-3.36-10.02-8.58ZM931.13,40.92c3.84,0,6.54-1.86,8.64-5.46v-6.3l-7.44.9c-4.5.54-7.2,2.34-7.2,5.88,0,3.18,2.58,4.98,6,4.98Z"/>
      <path class="cls-1" d="M973.01,29.22c0-8.76,5.88-15.36,13.68-15.36,6.36,0,10.92,3.9,12.72,9.6h-4.8c-1.5-3.6-4.2-5.76-7.92-5.76-5.1,0-9.06,4.56-9.06,11.52s3.96,11.52,9.06,11.52c3.72,0,6.42-2.1,7.92-5.76h4.8c-1.8,5.76-6.36,9.6-12.72,9.6-7.8,0-13.68-6.6-13.68-15.36Z"/>
      <path class="cls-1" d="M1007.62,33.3V14.7h4.44v18.3c0,5.4,2.88,7.68,7.14,7.68,3.36,0,6.18-1.74,8.4-5.4V14.7h4.44v29.04h-4.38v-4.08h-.42c-1.86,3.06-4.98,4.92-9.06,4.92-6.3,0-10.56-4.14-10.56-11.28Z"/>
      <path class="cls-1" d="M1043.21,14.7h4.38v5.28h.36c1.92-3.96,5.16-6.12,10.8-6.12h2.46v4.2h-2.88c-5.16,0-8.46,2.16-10.68,6.66v19.02h-4.44V14.7Z"/>
      <path class="cls-1" d="M1066.3,4.8c0-2.22,1.86-4.02,4.08-4.02s4.08,1.8,4.08,4.02-1.86,4.14-4.08,4.14-4.08-1.86-4.08-4.14ZM1068.22,40.08V14.7h4.44v29.04h-4.44v-3.66Z"/>
      <path class="cls-1" d="M1081.78,29.22c0-8.94,6-15.36,13.98-15.36s13.98,6.42,13.98,15.36-6,15.36-13.98,15.36-13.98-6.42-13.98-15.36ZM1105.12,29.22c0-6.9-3.9-11.52-9.36-11.52s-9.36,4.62-9.36,11.52,3.9,11.52,9.36,11.52,9.36-4.56,9.36-11.52Z"/>
      <path class="cls-1" d="M1118.56,33.3V14.7h4.44v18.3c0,5.4,2.88,7.68,7.14,7.68,3.36,0,6.18-1.74,8.4-5.4V14.7h4.44v29.04h-4.38v-4.08h-.42c-1.86,3.06-4.98,4.92-9.06,4.92-6.3,0-10.56-4.14-10.56-11.28Z"/>
      <path class="cls-1" d="M1151.8,35.7h4.86c1.32,3.72,3.96,5.34,8.28,5.34,3.48,0,6.42-2.04,6.42-5.52,0-2.7-1.5-3.84-5.04-4.44l-5.1-.78c-4.32-.72-8.04-2.94-8.04-7.86s4.68-8.58,10.68-8.58c6.36,0,10.56,3.06,12,8.1h-4.86c-1.2-3.3-3.84-4.56-7.2-4.56s-6.06,1.8-6.06,4.92c0,2.58,1.62,3.6,5.1,4.2l5.16.84c4.68.78,7.92,3.12,7.92,7.98,0,5.22-4.62,9.24-10.98,9.24-7.14,0-11.52-3.24-13.14-8.88Z"/>
      <path class="cls-1" d="M1201.48,29.22c0-8.76,5.82-15.36,13.62-15.36s13.56,6.6,13.56,15.36v1.14h-22.62c.36,6.6,4.08,10.5,9.24,10.5,3.48,0,6.36-1.92,7.86-5.1h4.8c-1.92,5.34-6.72,8.82-12.66,8.82-7.98,0-13.8-6.54-13.8-15.36ZM1224.04,26.82c-.72-5.82-4.26-9.24-8.94-9.24s-8.22,3.48-8.94,9.24h17.88Z"/>
      <path class="cls-1" d="M1246.24,40.92l-12.18-26.22h4.98l9.54,21.72h.36l9.12-21.72h4.74l-18.3,41.04h-4.8l6.54-14.82Z"/>
      <path class="cls-1" d="M1268.21,29.22c0-8.76,5.82-15.36,13.62-15.36s13.56,6.6,13.56,15.36v1.14h-22.62c.36,6.6,4.08,10.5,9.24,10.5,3.48,0,6.36-1.92,7.86-5.1h4.8c-1.92,5.34-6.72,8.82-12.66,8.82-7.98,0-13.8-6.54-13.8-15.36ZM1290.76,26.82c-.72-5.82-4.26-9.24-8.94-9.24s-8.22,3.48-8.94,9.24h17.88Z"/>
      <path class="cls-1" d="M311.22,72h4.02v3.72h-3.66c-3.9,0-5.58,2.34-5.58,6.3v4.68h9.24v3.78h-9.24v25.26h-4.44v-25.26h-8.28v-3.78h8.28v-4.62c0-5.7,3-10.08,9.66-10.08Z"/>
      <path class="cls-1" d="M320.94,101.22c0-8.94,6-15.36,13.98-15.36s13.98,6.42,13.98,15.36-6,15.36-13.98,15.36-13.98-6.42-13.98-15.36ZM344.28,101.22c0-6.9-3.9-11.52-9.36-11.52s-9.36,4.62-9.36,11.52,3.9,11.52,9.36,11.52,9.36-4.56,9.36-11.52Z"/>
      <path class="cls-1" d="M358.02,86.7h4.38v5.28h.36c1.92-3.96,5.16-6.12,10.8-6.12h2.46v4.2h-2.88c-5.16,0-8.46,2.16-10.68,6.66v19.02h-4.44v-29.04Z"/>
      <path class="cls-1" d="M401.52,86.7h4.32v3.72h.42c1.92-3,5.04-4.56,9.06-4.56,7.56,0,13.2,6.48,13.2,15.36s-5.64,15.36-13.2,15.36c-3.96,0-6.96-1.62-8.94-4.38h-.42v15.54h-4.44v-41.04ZM423.89,101.22c0-6.84-3.96-11.58-9.42-11.58-3.9,0-6.72,1.98-8.52,5.22v12.72c1.8,3.24,4.5,5.22,8.52,5.22,5.46,0,9.42-4.74,9.42-11.58Z"/>
      <path class="cls-1" d="M437.63,112.08v-40.08h4.44v43.74h-4.44v-3.66Z"/>
      <path class="cls-1" d="M450.89,108c0-5.34,4.44-8.22,10.68-9l8.58-1.02v-2.1c0-4.02-2.52-6.42-6.72-6.42-3.42,0-6,1.5-7.32,4.56h-4.8c1.44-4.62,6.18-8.16,12.18-8.16,6.78,0,11.1,4.02,11.1,9.96v11.46c0,2.88,1.56,4.86,4.26,4.86h1.02v3.9h-2.04c-3.42,0-6-1.68-7.02-4.68h-.36c-1.92,3.12-5.1,5.22-9.54,5.22-5.58,0-10.02-3.36-10.02-8.58ZM461.51,112.92c3.84,0,6.54-1.86,8.64-5.46v-6.3l-7.44.9c-4.5.54-7.2,2.34-7.2,5.88,0,3.18,2.58,4.98,6,4.98Z"/>
      <path class="cls-1" d="M486.95,86.7h4.38v4.08h.42c1.86-3.06,5.04-4.92,9.06-4.92,6.3,0,10.56,4.14,10.56,11.34v18.54h-4.44v-18.3c0-5.34-2.88-7.68-7.08-7.68-3.36,0-6.24,1.74-8.46,5.46v20.52h-4.44v-29.04Z"/>
      <path class="cls-1" d="M527.21,106.08v-15.6h-8.28v-3.78h8.28v-10.74h4.44v10.74h9.24v3.78h-9.24v15.48c0,4.02,1.86,5.94,5.7,5.94h3.54v3.84h-3.9c-6.54,0-9.78-3.24-9.78-9.66Z"/>
      <path class="cls-1" d="M547.37,107.7h4.86c1.32,3.72,3.96,5.34,8.28,5.34,3.48,0,6.42-2.04,6.42-5.52,0-2.7-1.5-3.84-5.04-4.44l-5.1-.78c-4.32-.72-8.04-2.94-8.04-7.86s4.68-8.58,10.68-8.58c6.36,0,10.56,3.06,12,8.1h-4.86c-1.2-3.3-3.84-4.56-7.2-4.56s-6.06,1.8-6.06,4.92c0,2.58,1.62,3.6,5.1,4.2l5.16.84c4.68.78,7.92,3.12,7.92,7.98,0,5.22-4.62,9.24-10.98,9.24-7.14,0-11.52-3.24-13.14-8.88Z"/>
      <path class="cls-1" d="M596.75,108c0-5.34,4.44-8.22,10.68-9l8.58-1.02v-2.1c0-4.02-2.52-6.42-6.72-6.42-3.42,0-6,1.5-7.32,4.56h-4.8c1.44-4.62,6.18-8.16,12.18-8.16,6.78,0,11.1,4.02,11.1,9.96v11.46c0,2.88,1.56,4.86,4.26,4.86h1.02v3.9h-2.04c-3.42,0-6-1.68-7.02-4.68h-.36c-1.92,3.12-5.1,5.22-9.54,5.22-5.58,0-10.02-3.36-10.02-8.58ZM607.37,112.92c3.84,0,6.54-1.86,8.64-5.46v-6.3l-7.44.9c-4.5.54-7.2,2.34-7.2,5.88,0,3.18,2.58,4.98,6,4.98Z"/>
      <path class="cls-1" d="M632.81,86.7h4.38v4.08h.42c1.86-3.06,5.04-4.92,9.06-4.92,6.3,0,10.56,4.14,10.56,11.34v18.54h-4.44v-18.3c0-5.34-2.88-7.68-7.08-7.68-3.36,0-6.24,1.74-8.46,5.46v20.52h-4.44v-29.04Z"/>
      <path class="cls-1" d="M666.05,101.22c0-8.88,5.64-15.36,13.2-15.36,3.96,0,6.96,1.56,9,4.44h.36v-18.3h4.44v43.74h-4.38v-3.78h-.36c-1.86,3-5.04,4.62-9.06,4.62-7.56,0-13.2-6.48-13.2-15.36ZM688.61,107.52v-12.6c-1.8-3.3-4.5-5.28-8.52-5.28-5.46,0-9.42,4.74-9.42,11.58s3.96,11.58,9.42,11.58c3.84,0,6.78-2.1,8.52-5.28Z"/>
      <path class="cls-1" d="M722.69,86.7h4.38v4.08h.42c1.86-3.06,5.04-4.92,9.06-4.92,6.3,0,10.56,4.14,10.56,11.34v18.54h-4.44v-18.3c0-5.34-2.88-7.68-7.08-7.68-3.36,0-6.24,1.74-8.46,5.46v20.52h-4.44v-29.04Z"/>
      <path class="cls-1" d="M755.93,101.22c0-8.76,5.82-15.36,13.62-15.36s13.56,6.6,13.56,15.36v1.14h-22.62c.36,6.6,4.08,10.5,9.24,10.5,3.48,0,6.36-1.92,7.86-5.1h4.8c-1.92,5.34-6.72,8.82-12.66,8.82-7.98,0-13.8-6.54-13.8-15.36ZM778.49,98.82c-.72-5.82-4.26-9.24-8.94-9.24s-8.22,3.48-8.94,9.24h17.88Z"/>
      <path class="cls-1" d="M796.97,106.08v-15.6h-8.28v-3.78h8.28v-10.74h4.44v10.74h9.24v3.78h-9.24v15.48c0,4.02,1.86,5.94,5.7,5.94h3.54v3.84h-3.9c-6.54,0-9.78-3.24-9.78-9.66Z"/>
      <path class="cls-1" d="M861.83,101.22c0-8.94,6-15.36,13.98-15.36s13.98,6.42,13.98,15.36-6,15.36-13.98,15.36-13.98-6.42-13.98-15.36ZM885.17,101.22c0-6.9-3.9-11.52-9.36-11.52s-9.36,4.62-9.36,11.52,3.9,11.52,9.36,11.52,9.36-4.56,9.36-11.52Z"/>
      <path class="cls-1" d="M898.91,86.7h4.38v5.28h.36c1.92-3.96,5.16-6.12,10.8-6.12h2.46v4.2h-2.88c-5.16,0-8.46,2.16-10.68,6.66v19.02h-4.44v-29.04Z"/>
      <path class="cls-1" d="M923.93,72h4.44v26.82h.12l12.96-12.12h6.06l-14.28,12.96,15.48,16.08h-5.82l-14.4-15.12h-.12v15.12h-4.44v-43.74Z"/>
      <path class="cls-1" d="M953.09,107.7h4.86c1.32,3.72,3.96,5.34,8.28,5.34,3.48,0,6.42-2.04,6.42-5.52,0-2.7-1.5-3.84-5.04-4.44l-5.1-.78c-4.32-.72-8.04-2.94-8.04-7.86s4.68-8.58,10.68-8.58c6.36,0,10.56,3.06,12,8.1h-4.86c-1.2-3.3-3.84-4.56-7.2-4.56s-6.06,1.8-6.06,4.92c0,2.58,1.62,3.6,5.1,4.2l5.16.84c4.68.78,7.92,3.12,7.92,7.98,0,5.22-4.62,9.24-10.98,9.24-7.14,0-11.52-3.24-13.14-8.88Z"/>
      <path class="cls-1" d="M988.01,111.48c0-2.64,2.16-4.8,4.92-4.8s4.86,2.16,4.86,4.8-2.22,4.8-4.86,4.8-4.92-2.1-4.92-4.8Z"/>
      <path class="cls-1" d="M97.06,41.87c-1.07-6.54-1.82-12.84-2.06-19.5-.17-4.79-.74-9.22-1.64-13.92,2.02-.11,2,1.54,2.08,2.78l1.33,20.23,2.51,14.25,4.37-11.25c2.44-6.28,4.68-12.5,8.61-18.38,3.1,8.39,1.41,18.5,5.44,27.83,5.19-11.53,6.96-23.59,13.46-34.68-.16-.52.07-.78.26-1.01.25-.3.43-.18.62-.03.22.17.57.92.32,1.35-7.49,13.16-8.77,24.81-13.23,34.28-.38.81-.99,2.02-2.25,1.93-3.76-8.39-2.49-17.64-4.97-26.43-3.49,5.33-5.46,11.06-7.59,16.97-1.15,3.2-2.62,6.05-3.32,9.42-.31,1.49-1.19,3.04-2.74,3.46l-1.2-7.28Z"/>
      <path class="cls-1" d="M866.01,87.45c-7.61,8.54-27.52,30.89-32.1,28.52-5.18-2.67,3.33-12.59,7.61-20.15l-12.93,12.35c-4.1,3.92-10.29,13.31-13.46,11.39-4.68-2.83,2.68-14.84,8.34-22.32l-18.83,16.03c-17.2,14.64-18.24,8.12-15.46,7.02l6-2.38c10.57-7.26,19.48-15.97,29.21-24.21,4.72-4,8.9-7.82,12.71-12.73,1.85-2.38,4.06-4.63,6.39-6.04l.96.9-12.4,15.18c-6.56,8.03-18.57,18.54-15.15,26.91,8.64-9.38,16.35-18.15,25.6-25.92l9.24-9.93c.99,4.28-1.97,6.68-4.02,9.57l-7.41,10.49c-2.5,3.54-5.57,6.64-5.54,12.14,5.75-2.17,9.22-6.92,13.49-10.87,7.98-7.37,14.87-14.94,21.15-23.94,1.7,4.12-1.5,5.83-3.4,7.96Z"/>
    </g>
  </g>
</svg>