<svg width="108" height="28" viewBox="0 0 108 28" fill="none" xmlns="http://www.w3.org/2000/svg">
<path d="M100.523 17.4492C100.648 17.7773 100.722 18.0898 100.746 18.3867C100.777 18.6758 100.824 18.9492 100.886 19.207C100.949 19.457 101.062 19.6953 101.226 19.9219C101.39 20.1484 101.675 20.3594 102.081 20.5547C102.175 20.6016 102.257 20.6406 102.328 20.6719C102.398 20.7031 102.464 20.7344 102.527 20.7656C102.597 20.7891 102.667 20.8125 102.738 20.8359C102.816 20.8594 102.902 20.8828 102.996 20.9063C103.246 20.9688 103.496 21.0156 103.746 21.0469C103.996 21.0703 104.246 21.0625 104.496 21.0234C104.667 20.9141 104.82 20.7383 104.953 20.4961C105.093 20.2461 105.203 19.9766 105.281 19.6875C105.367 19.3984 105.421 19.1133 105.445 18.832C105.476 18.543 105.472 18.3047 105.433 18.1172C105.355 17.7266 105.167 17.3711 104.871 17.0508C104.597 16.7617 104.292 16.5313 103.956 16.3594C103.621 16.1797 103.273 16.0234 102.913 15.8906C102.554 15.75 102.191 15.6211 101.824 15.5039C101.464 15.3789 101.117 15.2266 100.781 15.0469C100.609 14.9531 100.441 14.8438 100.277 14.7188C100.113 14.5938 99.9604 14.457 99.8197 14.3086C99.6869 14.1523 99.5776 13.9844 99.4916 13.8047C99.4057 13.625 99.351 13.4297 99.3276 13.2188C99.3119 13.0234 99.3197 12.8203 99.351 12.6094C99.3901 12.3984 99.433 12.1992 99.4799 12.0117C99.558 11.6758 99.6869 11.3828 99.8666 11.1328C100.046 10.8828 100.257 10.668 100.499 10.4883C100.749 10.3008 101.019 10.1406 101.308 10.0078C101.597 9.86719 101.894 9.73828 102.199 9.62109C102.589 9.47266 103.011 9.35547 103.464 9.26953C103.917 9.17578 104.371 9.14063 104.824 9.16406C105.277 9.1875 105.706 9.28125 106.113 9.44531C106.527 9.60156 106.882 9.85547 107.179 10.207C107.273 10.3164 107.339 10.4531 107.378 10.6172C107.425 10.7813 107.456 10.9531 107.472 11.1328C107.496 11.3125 107.503 11.4922 107.496 11.6719C107.496 11.8438 107.496 11.9922 107.496 12.1172L105.41 12.832C105.41 12.5586 105.406 12.3008 105.398 12.0586C105.39 11.8164 105.351 11.5938 105.281 11.3906C105.218 11.1797 105.113 10.9883 104.964 10.8164C104.824 10.6445 104.613 10.4883 104.331 10.3477C104.206 10.2852 104.05 10.2266 103.863 10.1719C103.675 10.1172 103.511 10.082 103.371 10.0664C103.199 10.043 103.019 10.0313 102.831 10.0313C102.652 10.0234 102.476 10.0391 102.304 10.0781C102.132 10.2109 101.98 10.3906 101.847 10.6172C101.722 10.8359 101.621 11.0742 101.542 11.332C101.464 11.582 101.417 11.8359 101.402 12.0938C101.386 12.3516 101.41 12.582 101.472 12.7852C101.55 13.0273 101.667 13.2422 101.824 13.4297C101.98 13.6172 102.156 13.7891 102.351 13.9453C102.617 14.1484 102.933 14.3242 103.3 14.4727C103.675 14.6211 104.062 14.7695 104.46 14.918C104.859 15.0586 105.249 15.2109 105.632 15.375C106.015 15.5391 106.355 15.7383 106.652 15.9727C106.949 16.1992 107.179 16.4766 107.343 16.8047C107.507 17.125 107.574 17.5156 107.542 17.9766C107.527 18.2031 107.492 18.4336 107.437 18.668C107.382 18.8945 107.32 19.1211 107.249 19.3477C107.179 19.5742 107.081 19.7773 106.956 19.957C106.831 20.1367 106.687 20.3008 106.523 20.4492C106.359 20.5898 106.179 20.7188 105.984 20.8359C105.788 20.9531 105.585 21.0625 105.374 21.1641C104.913 21.3828 104.417 21.5586 103.886 21.6914C103.363 21.832 102.831 21.9023 102.292 21.9023C101.761 21.9102 101.242 21.8359 100.734 21.6797C100.226 21.5234 99.769 21.2617 99.3627 20.8945C99.1674 20.7227 99.0229 20.5313 98.9291 20.3203C98.8432 20.1016 98.7768 19.875 98.7299 19.6406C98.6908 19.4063 98.6557 19.1719 98.6244 18.9375C98.5932 18.6953 98.5385 18.4609 98.4604 18.2344L100.523 17.4492Z" fill="#3797D2"/>
<path d="M87.1518 16.2422C87.144 15.9453 87.1518 15.6602 87.1752 15.3867C87.1987 15.1133 87.2533 14.8359 87.3393 14.5547C87.3549 14.2656 87.3862 13.9805 87.433 13.6992C87.4799 13.418 87.5541 13.1406 87.6557 12.8672C87.8432 12.3516 88.0815 11.9102 88.3705 11.543C88.6674 11.168 89.0072 10.8477 89.3901 10.582C89.7729 10.3164 90.1908 10.0977 90.644 9.92578C91.1049 9.75391 91.5932 9.60938 92.1088 9.49219C92.4369 9.42188 92.7729 9.38281 93.1166 9.375C93.4604 9.36719 93.7963 9.39844 94.1244 9.46875C94.4526 9.53906 94.769 9.65234 95.0737 9.80859C95.3783 9.95703 95.6518 10.1523 95.894 10.3945C96.0815 10.5742 96.2338 10.7695 96.351 10.9805C96.476 11.1836 96.5815 11.4063 96.6674 11.6484C96.7768 11.9219 96.8666 12.2227 96.9369 12.5508C97.0151 12.8789 97.0229 13.1953 96.9604 13.5C96.8901 13.8047 96.7221 14.0703 96.4565 14.2969C96.1908 14.5156 95.8822 14.6953 95.5307 14.8359C95.1791 14.9766 94.8197 15.082 94.4526 15.1523C94.0854 15.2227 93.769 15.2617 93.5033 15.2695C93.183 15.2773 92.8549 15.2813 92.519 15.2813C92.183 15.2813 91.8471 15.2813 91.5112 15.2813C91.1752 15.2813 90.8471 15.2813 90.5268 15.2813C90.2065 15.2734 89.9057 15.2695 89.6244 15.2695C89.5776 15.2695 89.519 15.2734 89.4487 15.2813C89.3862 15.2813 89.3354 15.2852 89.2963 15.293H89.2377V15.5273C89.2455 16.0195 89.2924 16.5273 89.3783 17.0508C89.4643 17.5742 89.6049 18.0742 89.8002 18.5508C90.0033 19.0273 90.269 19.457 90.5971 19.8398C90.933 20.2227 91.3549 20.5195 91.8627 20.7305C92.2377 20.8789 92.6127 20.9727 92.9877 21.0117C93.3627 21.043 93.7455 21.0391 94.1362 21C94.3002 20.9063 94.4487 20.793 94.5815 20.6602C94.7221 20.5195 94.851 20.3711 94.9682 20.2148C95.0854 20.0508 95.1908 19.8828 95.2846 19.7109C95.3783 19.5391 95.4643 19.3711 95.5424 19.207L97.6049 18.5742C97.4252 18.9492 97.2104 19.3086 96.9604 19.6523C96.7104 19.9883 96.4135 20.2813 96.0697 20.5313C95.8432 20.7109 95.5971 20.8633 95.3315 20.9883C95.0737 21.1133 94.808 21.2305 94.5346 21.3398C94.0971 21.5195 93.6362 21.6602 93.1518 21.7617C92.6752 21.8711 92.1947 21.9219 91.7104 21.9141C91.226 21.9063 90.7533 21.8359 90.2924 21.7031C89.8315 21.5703 89.4018 21.3516 89.0033 21.0469C88.6362 20.7656 88.3354 20.4375 88.101 20.0625C87.8666 19.6875 87.6791 19.2891 87.5385 18.8672C87.4057 18.4453 87.308 18.0117 87.2455 17.5664C87.1908 17.1133 87.1596 16.6719 87.1518 16.2422ZM90.3276 11.0625C90.0463 11.4766 89.8354 11.9102 89.6947 12.3633C89.5541 12.8164 89.4643 13.293 89.4252 13.793C89.433 13.793 89.4369 13.793 89.4369 13.793C89.4369 13.7852 89.4408 13.7813 89.4487 13.7813C89.4408 13.7969 89.4369 13.8086 89.4369 13.8164C89.4369 13.8242 89.433 13.832 89.4252 13.8398C89.4877 13.9023 89.5424 13.9648 89.5893 14.0273C89.644 14.0898 89.7026 14.1523 89.7651 14.2148L89.8822 14.2852C89.9135 14.3008 89.9447 14.3203 89.976 14.3438C90.0072 14.3672 90.0385 14.3867 90.0697 14.4023C90.1479 14.418 90.2104 14.4297 90.2572 14.4375C90.3041 14.4375 90.3822 14.4414 90.4916 14.4492C90.6244 14.4648 90.7533 14.4609 90.8783 14.4375C91.0112 14.4141 91.144 14.4023 91.2768 14.4023H94.5697C94.6088 14.4023 94.6479 14.4063 94.6869 14.4141C94.726 14.4141 94.7651 14.4141 94.8041 14.4141C94.8588 14.2734 94.894 14.1211 94.9096 13.957C94.9252 13.707 94.8979 13.4492 94.8276 13.1836C94.7651 12.918 94.6908 12.668 94.6049 12.4336C94.4721 12.0742 94.2846 11.75 94.0424 11.4609C93.808 11.1641 93.5346 10.918 93.2221 10.7227C92.9096 10.5195 92.5658 10.3789 92.1908 10.3008C91.8237 10.2148 91.4487 10.207 91.0658 10.2773C90.9096 10.3633 90.769 10.4805 90.644 10.6289C90.5268 10.7695 90.4213 10.9141 90.3276 11.0625Z" fill="#3797D2"/>
<path d="M81.1869 9.53906C81.3744 9.53906 81.558 9.53516 81.7377 9.52734C81.9252 9.51953 82.1088 9.51562 82.2885 9.51562C82.3979 9.51562 82.5033 9.51953 82.6049 9.52734C82.7065 9.53516 82.808 9.54688 82.9096 9.5625C83.0268 9.57812 83.144 9.60547 83.2612 9.64453C83.3783 9.68359 83.4838 9.73828 83.5776 9.80859C83.6947 9.88672 83.7807 9.96094 83.8354 10.0312C83.8979 10.0938 83.9408 10.1641 83.9643 10.2422C83.9877 10.3125 83.9994 10.3945 83.9994 10.4883C83.9994 10.5742 83.9994 10.6797 83.9994 10.8047V19.2891C83.9994 19.3984 83.9994 19.5078 83.9994 19.6172C84.0072 19.7188 83.9877 19.8242 83.9408 19.9336C83.9252 19.9648 83.9174 19.9805 83.9174 19.9805L83.9994 19.9453C84.1791 20.1094 84.3666 20.2383 84.5619 20.332C84.7572 20.4258 84.9604 20.5 85.1713 20.5547C85.3822 20.6016 85.5971 20.6367 85.8158 20.6602C86.0346 20.6758 86.2612 20.6875 86.4955 20.6953L84.6557 21.5508C84.2338 21.5352 83.8315 21.5 83.4487 21.4453C83.0737 21.3828 82.7104 21.25 82.3588 21.0469C81.8979 21.2266 81.4291 21.3555 80.9526 21.4336C80.4838 21.5117 79.9994 21.5508 79.4994 21.5508C79.7729 21.4102 80.0463 21.2695 80.3197 21.1289C80.601 20.9805 80.8783 20.832 81.1518 20.6836C81.2924 20.6836 81.4018 20.6875 81.4799 20.6953C81.5658 20.6953 81.6752 20.6875 81.808 20.6719C81.8705 20.5781 81.9018 20.4766 81.9018 20.3672C81.9096 20.2578 81.9135 20.1367 81.9135 20.0039V11.5195C81.9135 11.3633 81.9057 11.2305 81.8901 11.1211C81.8822 11.0039 81.851 10.9062 81.7963 10.8281C81.7494 10.7422 81.6713 10.6719 81.5619 10.6172C81.4604 10.5547 81.3197 10.4961 81.1401 10.4414C81.0541 10.418 80.9682 10.4023 80.8822 10.3945C80.8041 10.3867 80.7221 10.3828 80.6362 10.3828C80.4487 10.3828 80.2612 10.3867 80.0737 10.3945C79.894 10.4023 79.7143 10.4062 79.5346 10.4062L81.1869 9.53906ZM87.2807 0L83.9057 6.90234H81.9721L81.9252 5.00391L87.2807 0Z" fill="#3797D2"/>
<path d="M79.9799 9.39844C79.8549 9.51562 79.7338 9.63672 79.6166 9.76172C79.5073 9.88672 79.3862 10 79.2533 10.1016C78.9565 10.3281 78.6166 10.5117 78.2338 10.6523C77.851 10.793 77.476 10.8945 77.1088 10.957C77.0619 11.082 77.0463 11.2227 77.0619 11.3789C77.0854 11.5352 77.1205 11.6953 77.1674 11.8594C77.2143 12.0156 77.2612 12.1719 77.308 12.3281C77.3627 12.4766 77.3979 12.6094 77.4135 12.7266C77.4526 12.9844 77.4682 13.25 77.4604 13.5234C77.4526 13.7891 77.4174 14.0547 77.3549 14.3203C77.2924 14.5781 77.2065 14.8281 77.0971 15.0703C76.9877 15.3125 76.851 15.5391 76.6869 15.75C76.4369 16.0703 76.1283 16.3477 75.7612 16.582C75.4018 16.8164 75.0151 17.0156 74.601 17.1797C74.1948 17.3359 73.7768 17.4609 73.3471 17.5547C72.9174 17.6406 72.5112 17.6953 72.1283 17.7188C72.0268 17.7266 71.9096 17.7344 71.7768 17.7422C71.6518 17.7422 71.519 17.7383 71.3783 17.7305C71.2455 17.8711 71.1205 18.0117 71.0033 18.1523C70.8862 18.293 70.7885 18.4414 70.7104 18.5977C70.6401 18.7461 70.601 18.9023 70.5932 19.0664C70.5854 19.2227 70.6283 19.3867 70.7221 19.5586C70.8393 19.7852 71.019 19.957 71.2612 20.0742C71.5112 20.1836 71.7807 20.2656 72.0698 20.3203C72.3666 20.3672 72.6596 20.3945 72.9487 20.4023C73.2455 20.4023 73.4994 20.4023 73.7104 20.4023C73.9994 20.4023 74.2963 20.4023 74.601 20.4023C74.9057 20.3945 75.2065 20.4023 75.5033 20.4258C75.808 20.4414 76.1049 20.4805 76.394 20.543C76.6908 20.5977 76.976 20.6836 77.2494 20.8008C77.6401 20.9648 77.9565 21.168 78.1987 21.4102C78.4408 21.6445 78.6205 21.9102 78.7377 22.207C78.8549 22.5039 78.9135 22.8203 78.9135 23.1562C78.9135 23.5 78.8666 23.8594 78.7729 24.2344C78.7182 24.4375 78.6596 24.6328 78.5971 24.8203C78.5424 25.0078 78.4565 25.1953 78.3393 25.3828C78.0971 25.7656 77.7846 26.0859 77.4018 26.3438C77.019 26.6094 76.6283 26.8359 76.2299 27.0234C75.7612 27.25 75.269 27.4375 74.7533 27.5859C74.2377 27.7422 73.7143 27.8477 73.183 27.9023C72.6596 27.9648 72.1323 27.9648 71.601 27.9023C71.0776 27.8477 70.5698 27.7148 70.0776 27.5039C69.8666 27.418 69.6557 27.3047 69.4448 27.1641C69.2416 27.0312 69.0541 26.8867 68.8823 26.7305C68.5541 26.418 68.3237 26.0742 68.1908 25.6992C68.058 25.332 68.0073 24.957 68.0385 24.5742C68.0698 24.1992 68.1791 23.832 68.3666 23.4727C68.5541 23.1211 68.8119 22.8047 69.1401 22.5234C69.2338 22.4453 69.3315 22.375 69.433 22.3125C69.5424 22.25 69.6518 22.1875 69.7612 22.125C69.894 22.0156 70.0033 21.8711 70.0893 21.6914C70.1752 21.5117 70.2729 21.3477 70.3823 21.1992C70.1791 21.1758 69.976 21.1406 69.7729 21.0938C69.5698 21.0391 69.3823 20.9648 69.2104 20.8711C69.0463 20.7773 68.9057 20.6602 68.7885 20.5195C68.6713 20.3711 68.5893 20.1914 68.5424 19.9805C68.4877 19.7148 68.5151 19.4727 68.6244 19.2539C68.7416 19.0352 68.8901 18.8242 69.0698 18.6211C69.2573 18.418 69.4487 18.2227 69.644 18.0352C69.8393 17.8398 69.9877 17.6406 70.0893 17.4375L70.1948 17.4023C70.0385 17.293 69.9018 17.1953 69.7846 17.1094C69.6752 17.0234 69.5737 16.9336 69.4799 16.8398C69.3862 16.7461 69.2924 16.6406 69.1987 16.5234C69.1127 16.4062 69.0229 16.2617 68.9291 16.0898C68.6635 15.6211 68.4955 15.1172 68.4252 14.5781C68.3549 14.0391 68.3783 13.5117 68.4955 12.9961C68.6205 12.4805 68.8354 12.0078 69.1401 11.5781C69.4448 11.1406 69.8432 10.793 70.3354 10.5352C70.8354 10.2617 71.3393 10.0469 71.8471 9.89062C72.3627 9.73438 72.9018 9.625 73.4643 9.5625C73.8237 9.52344 74.1908 9.53516 74.5658 9.59766C74.9408 9.65234 75.2885 9.75781 75.6088 9.91406C75.7885 10 75.9565 10.1016 76.1127 10.2188C76.2768 10.3359 76.4408 10.4492 76.6049 10.5586L77.1088 10.4062C77.1948 10.3828 77.2807 10.3594 77.3666 10.3359C77.4604 10.3125 77.5502 10.293 77.6362 10.2773L77.9994 9.92578L79.9799 9.39844ZM74.7533 21.457C74.3002 21.332 73.8393 21.2734 73.3705 21.2812C72.9018 21.2812 72.433 21.2812 71.9643 21.2812C71.8705 21.4141 71.7612 21.5352 71.6362 21.6445C71.519 21.7617 71.3471 21.8867 71.1205 22.0195L71.0502 22.0547C70.7612 22.3281 70.5346 22.6289 70.3705 22.957C70.2143 23.293 70.1283 23.6328 70.1127 23.9766C70.0971 24.3203 70.1557 24.6602 70.2885 24.9961C70.4213 25.3398 70.6401 25.6562 70.9448 25.9453C71.2807 26.2656 71.6674 26.5156 72.1049 26.6953C72.5502 26.875 72.9994 26.9961 73.4526 27.0586C73.5776 27.0742 73.7299 27.0859 73.9096 27.0938C74.0893 27.1094 74.2729 27.1133 74.4604 27.1055C74.6479 27.0977 74.8276 27.0742 74.9994 27.0352C75.1713 26.9961 75.3158 26.9336 75.433 26.8477C75.5893 26.7305 75.7221 26.6211 75.8315 26.5195C75.9408 26.418 76.0385 26.3086 76.1244 26.1914C76.2104 26.082 76.2885 25.957 76.3588 25.8164C76.4291 25.6836 76.5033 25.5273 76.5815 25.3477C76.6205 25.2461 76.6518 25.1328 76.6752 25.0078C76.7065 24.8906 76.7338 24.7773 76.7573 24.668C76.9135 23.8789 76.8237 23.2031 76.4877 22.6406C76.1596 22.0781 75.5815 21.6836 74.7533 21.457ZM75.3276 13.4414C75.3041 13.3008 75.2651 13.1562 75.2104 13.0078C75.1557 12.8516 75.1049 12.6953 75.058 12.5391C75.0112 12.375 74.9799 12.2148 74.9643 12.0586C74.9487 11.9023 74.9682 11.7539 75.0229 11.6133C74.7807 11.5195 74.5619 11.3984 74.3666 11.25C74.1791 11.0938 73.976 10.9492 73.7573 10.8164C73.4448 10.6367 73.1049 10.5195 72.7377 10.4648C72.3705 10.4102 72.0112 10.4102 71.6596 10.4648C71.4955 10.6211 71.351 10.7734 71.226 10.9219C71.1088 11.0703 71.0033 11.2266 70.9096 11.3906C70.8237 11.5469 70.7494 11.7188 70.6869 11.9062C70.6244 12.0859 70.5737 12.293 70.5346 12.5273C70.433 13.1523 70.4643 13.7812 70.6283 14.4141C70.7924 15.0469 71.101 15.5977 71.5541 16.0664C71.6635 16.1758 71.7807 16.2773 71.9057 16.3711C72.0385 16.457 72.1713 16.5469 72.3041 16.6406C72.3979 16.7109 72.5073 16.7617 72.6323 16.793C72.7573 16.8242 72.8862 16.8477 73.019 16.8633C73.1518 16.8711 73.2846 16.875 73.4174 16.875C73.5502 16.8672 73.6713 16.8594 73.7807 16.8516C73.7963 16.8516 73.8393 16.8516 73.9096 16.8516C73.9877 16.8438 74.058 16.8359 74.1205 16.8281C74.3783 16.6328 74.5932 16.4062 74.7651 16.1484C74.9369 15.8906 75.0737 15.6133 75.1752 15.3164C75.2768 15.0195 75.3393 14.7148 75.3627 14.4023C75.3862 14.082 75.3744 13.7617 75.3276 13.4414ZM78.5854 10.1016C78.5776 10.1016 78.5698 10.1055 78.5619 10.1133C78.5776 10.1133 78.5854 10.1133 78.5854 10.1133C78.5932 10.1055 78.5932 10.1016 78.5854 10.1016Z" fill="#3797D2"/>
<path d="M67.4877 9.39844C67.3627 9.51562 67.2416 9.63672 67.1244 9.76172C67.0151 9.88672 66.894 10 66.7612 10.1016C66.4643 10.3281 66.1244 10.5117 65.7416 10.6523C65.3588 10.793 64.9838 10.8945 64.6166 10.957C64.5698 11.082 64.5541 11.2227 64.5698 11.3789C64.5932 11.5352 64.6283 11.6953 64.6752 11.8594C64.7221 12.0156 64.769 12.1719 64.8158 12.3281C64.8705 12.4766 64.9057 12.6094 64.9213 12.7266C64.9604 12.9844 64.976 13.25 64.9682 13.5234C64.9604 13.7891 64.9252 14.0547 64.8627 14.3203C64.8002 14.5781 64.7143 14.8281 64.6049 15.0703C64.4955 15.3125 64.3588 15.5391 64.1948 15.75C63.9448 16.0703 63.6362 16.3477 63.269 16.582C62.9096 16.8164 62.5229 17.0156 62.1088 17.1797C61.7026 17.3359 61.2846 17.4609 60.8549 17.5547C60.4252 17.6406 60.019 17.6953 59.6362 17.7188C59.5346 17.7266 59.4174 17.7344 59.2846 17.7422C59.1596 17.7422 59.0268 17.7383 58.8862 17.7305C58.7533 17.8711 58.6283 18.0117 58.5112 18.1523C58.394 18.293 58.2963 18.4414 58.2182 18.5977C58.1479 18.7461 58.1088 18.9023 58.101 19.0664C58.0932 19.2227 58.1362 19.3867 58.2299 19.5586C58.3471 19.7852 58.5268 19.957 58.769 20.0742C59.019 20.1836 59.2885 20.2656 59.5776 20.3203C59.8744 20.3672 60.1674 20.3945 60.4565 20.4023C60.7533 20.4023 61.0073 20.4023 61.2182 20.4023C61.5073 20.4023 61.8041 20.4023 62.1088 20.4023C62.4135 20.3945 62.7143 20.4023 63.0112 20.4258C63.3158 20.4414 63.6127 20.4805 63.9018 20.543C64.1987 20.5977 64.4838 20.6836 64.7573 20.8008C65.1479 20.9648 65.4643 21.168 65.7065 21.4102C65.9487 21.6445 66.1283 21.9102 66.2455 22.207C66.3627 22.5039 66.4213 22.8203 66.4213 23.1562C66.4213 23.5 66.3744 23.8594 66.2807 24.2344C66.226 24.4375 66.1674 24.6328 66.1049 24.8203C66.0502 25.0078 65.9643 25.1953 65.8471 25.3828C65.6049 25.7656 65.2924 26.0859 64.9096 26.3438C64.5268 26.6094 64.1362 26.8359 63.7377 27.0234C63.269 27.25 62.7768 27.4375 62.2612 27.5859C61.7455 27.7422 61.2221 27.8477 60.6908 27.9023C60.1674 27.9648 59.6401 27.9648 59.1088 27.9023C58.5854 27.8477 58.0776 27.7148 57.5854 27.5039C57.3744 27.418 57.1635 27.3047 56.9526 27.1641C56.7494 27.0312 56.5619 26.8867 56.3901 26.7305C56.0619 26.418 55.8315 26.0742 55.6987 25.6992C55.5658 25.332 55.5151 24.957 55.5463 24.5742C55.5776 24.1992 55.6869 23.832 55.8744 23.4727C56.0619 23.1211 56.3198 22.8047 56.6479 22.5234C56.7416 22.4453 56.8393 22.375 56.9408 22.3125C57.0502 22.25 57.1596 22.1875 57.269 22.125C57.4018 22.0156 57.5112 21.8711 57.5971 21.6914C57.683 21.5117 57.7807 21.3477 57.8901 21.1992C57.6869 21.1758 57.4838 21.1406 57.2807 21.0938C57.0776 21.0391 56.8901 20.9648 56.7182 20.8711C56.5541 20.7773 56.4135 20.6602 56.2963 20.5195C56.1791 20.3711 56.0971 20.1914 56.0502 19.9805C55.9955 19.7148 56.0229 19.4727 56.1323 19.2539C56.2494 19.0352 56.3979 18.8242 56.5776 18.6211C56.7651 18.418 56.9565 18.2227 57.1518 18.0352C57.3471 17.8398 57.4955 17.6406 57.5971 17.4375L57.7026 17.4023C57.5463 17.293 57.4096 17.1953 57.2924 17.1094C57.183 17.0234 57.0815 16.9336 56.9877 16.8398C56.894 16.7461 56.8002 16.6406 56.7065 16.5234C56.6205 16.4062 56.5307 16.2617 56.4369 16.0898C56.1713 15.6211 56.0033 15.1172 55.933 14.5781C55.8627 14.0391 55.8862 13.5117 56.0033 12.9961C56.1283 12.4805 56.3432 12.0078 56.6479 11.5781C56.9526 11.1406 57.351 10.793 57.8432 10.5352C58.3432 10.2617 58.8471 10.0469 59.3549 9.89062C59.8705 9.73438 60.4096 9.625 60.9721 9.5625C61.3315 9.52344 61.6987 9.53516 62.0737 9.59766C62.4487 9.65234 62.7963 9.75781 63.1166 9.91406C63.2963 10 63.4643 10.1016 63.6205 10.2188C63.7846 10.3359 63.9487 10.4492 64.1127 10.5586L64.6166 10.4062C64.7026 10.3828 64.7885 10.3594 64.8744 10.3359C64.9682 10.3125 65.058 10.293 65.144 10.2773L65.5073 9.92578L67.4877 9.39844ZM62.2612 21.457C61.808 21.332 61.3471 21.2734 60.8783 21.2812C60.4096 21.2812 59.9408 21.2812 59.4721 21.2812C59.3783 21.4141 59.269 21.5352 59.144 21.6445C59.0268 21.7617 58.8549 21.8867 58.6283 22.0195L58.558 22.0547C58.269 22.3281 58.0424 22.6289 57.8783 22.957C57.7221 23.293 57.6362 23.6328 57.6205 23.9766C57.6049 24.3203 57.6635 24.6602 57.7963 24.9961C57.9291 25.3398 58.1479 25.6562 58.4526 25.9453C58.7885 26.2656 59.1752 26.5156 59.6127 26.6953C60.058 26.875 60.5073 26.9961 60.9604 27.0586C61.0854 27.0742 61.2377 27.0859 61.4174 27.0938C61.5971 27.1094 61.7807 27.1133 61.9682 27.1055C62.1557 27.0977 62.3354 27.0742 62.5073 27.0352C62.6791 26.9961 62.8237 26.9336 62.9408 26.8477C63.0971 26.7305 63.2299 26.6211 63.3393 26.5195C63.4487 26.418 63.5463 26.3086 63.6323 26.1914C63.7182 26.082 63.7963 25.957 63.8666 25.8164C63.9369 25.6836 64.0112 25.5273 64.0893 25.3477C64.1283 25.2461 64.1596 25.1328 64.183 25.0078C64.2143 24.8906 64.2416 24.7773 64.2651 24.668C64.4213 23.8789 64.3315 23.2031 63.9955 22.6406C63.6674 22.0781 63.0893 21.6836 62.2612 21.457ZM62.8354 13.4414C62.8119 13.3008 62.7729 13.1562 62.7182 13.0078C62.6635 12.8516 62.6127 12.6953 62.5658 12.5391C62.519 12.375 62.4877 12.2148 62.4721 12.0586C62.4565 11.9023 62.476 11.7539 62.5307 11.6133C62.2885 11.5195 62.0698 11.3984 61.8744 11.25C61.6869 11.0938 61.4838 10.9492 61.2651 10.8164C60.9526 10.6367 60.6127 10.5195 60.2455 10.4648C59.8783 10.4102 59.519 10.4102 59.1674 10.4648C59.0033 10.6211 58.8588 10.7734 58.7338 10.9219C58.6166 11.0703 58.5112 11.2266 58.4174 11.3906C58.3315 11.5469 58.2573 11.7188 58.1948 11.9062C58.1323 12.0859 58.0815 12.293 58.0424 12.5273C57.9408 13.1523 57.9721 13.7812 58.1362 14.4141C58.3002 15.0469 58.6088 15.5977 59.0619 16.0664C59.1713 16.1758 59.2885 16.2773 59.4135 16.3711C59.5463 16.457 59.6791 16.5469 59.8119 16.6406C59.9057 16.7109 60.0151 16.7617 60.1401 16.793C60.2651 16.8242 60.394 16.8477 60.5268 16.8633C60.6596 16.8711 60.7924 16.875 60.9252 16.875C61.058 16.8672 61.1791 16.8594 61.2885 16.8516C61.3041 16.8516 61.3471 16.8516 61.4174 16.8516C61.4955 16.8438 61.5658 16.8359 61.6283 16.8281C61.8862 16.6328 62.101 16.4062 62.2729 16.1484C62.4448 15.8906 62.5815 15.6133 62.683 15.3164C62.7846 15.0195 62.8471 14.7148 62.8705 14.4023C62.894 14.082 62.8823 13.7617 62.8354 13.4414ZM66.0932 10.1016C66.0854 10.1016 66.0776 10.1055 66.0698 10.1133C66.0854 10.1133 66.0932 10.1133 66.0932 10.1133C66.101 10.1055 66.101 10.1016 66.0932 10.1016Z" fill="#3797D2"/>
<path d="M43.4174 16.2422C43.4096 15.9453 43.4174 15.6602 43.4408 15.3867C43.4643 15.1133 43.519 14.8359 43.6049 14.5547C43.6205 14.2656 43.6518 13.9805 43.6987 13.6992C43.7455 13.418 43.8197 13.1406 43.9213 12.8672C44.1088 12.3516 44.3471 11.9102 44.6362 11.543C44.933 11.168 45.2729 10.8477 45.6557 10.582C46.0385 10.3164 46.4565 10.0977 46.9096 9.92578C47.3705 9.75391 47.8588 9.60938 48.3744 9.49219C48.7026 9.42188 49.0385 9.38281 49.3822 9.375C49.726 9.36719 50.0619 9.39844 50.3901 9.46875C50.7182 9.53906 51.0346 9.65234 51.3393 9.80859C51.644 9.95703 51.9174 10.1523 52.1596 10.3945C52.3471 10.5742 52.4994 10.7695 52.6166 10.9805C52.7416 11.1836 52.8471 11.4063 52.933 11.6484C53.0424 11.9219 53.1322 12.2227 53.2026 12.5508C53.2807 12.8789 53.2885 13.1953 53.226 13.5C53.1557 13.8047 52.9877 14.0703 52.7221 14.2969C52.4565 14.5156 52.1479 14.6953 51.7963 14.8359C51.4447 14.9766 51.0854 15.082 50.7182 15.1523C50.351 15.2227 50.0346 15.2617 49.769 15.2695C49.4487 15.2773 49.1205 15.2813 48.7846 15.2813C48.4487 15.2813 48.1127 15.2813 47.7768 15.2813C47.4408 15.2813 47.1127 15.2813 46.7924 15.2813C46.4721 15.2734 46.1713 15.2695 45.8901 15.2695C45.8432 15.2695 45.7846 15.2734 45.7143 15.2813C45.6518 15.2813 45.601 15.2852 45.5619 15.293H45.5033V15.5273C45.5112 16.0195 45.558 16.5273 45.644 17.0508C45.7299 17.5742 45.8705 18.0742 46.0658 18.5508C46.269 19.0273 46.5346 19.457 46.8627 19.8398C47.1987 20.2227 47.6205 20.5195 48.1283 20.7305C48.5033 20.8789 48.8783 20.9727 49.2533 21.0117C49.6283 21.043 50.0112 21.0391 50.4018 21C50.5658 20.9063 50.7143 20.793 50.8471 20.6602C50.9877 20.5195 51.1166 20.3711 51.2338 20.2148C51.351 20.0508 51.4565 19.8828 51.5502 19.7109C51.644 19.5391 51.7299 19.3711 51.808 19.207L53.8705 18.5742C53.6908 18.9492 53.476 19.3086 53.226 19.6523C52.976 19.9883 52.6791 20.2813 52.3354 20.5313C52.1088 20.7109 51.8627 20.8633 51.5971 20.9883C51.3393 21.1133 51.0737 21.2305 50.8002 21.3398C50.3627 21.5195 49.9018 21.6602 49.4174 21.7617C48.9408 21.8711 48.4604 21.9219 47.976 21.9141C47.4916 21.9063 47.019 21.8359 46.558 21.7031C46.0971 21.5703 45.6674 21.3516 45.269 21.0469C44.9018 20.7656 44.601 20.4375 44.3666 20.0625C44.1322 19.6875 43.9447 19.2891 43.8041 18.8672C43.6713 18.4453 43.5737 18.0117 43.5112 17.5664C43.4565 17.1133 43.4252 16.6719 43.4174 16.2422ZM46.5932 11.0625C46.3119 11.4766 46.101 11.9102 45.9604 12.3633C45.8197 12.8164 45.7299 13.293 45.6908 13.793C45.6987 13.793 45.7026 13.793 45.7026 13.793C45.7026 13.7852 45.7065 13.7813 45.7143 13.7813C45.7065 13.7969 45.7026 13.8086 45.7026 13.8164C45.7026 13.8242 45.6987 13.832 45.6908 13.8398C45.7533 13.9023 45.808 13.9648 45.8549 14.0273C45.9096 14.0898 45.9682 14.1523 46.0307 14.2148L46.1479 14.2852C46.1791 14.3008 46.2104 14.3203 46.2416 14.3438C46.2729 14.3672 46.3041 14.3867 46.3354 14.4023C46.4135 14.418 46.476 14.4297 46.5229 14.4375C46.5697 14.4375 46.6479 14.4414 46.7572 14.4492C46.8901 14.4648 47.019 14.4609 47.144 14.4375C47.2768 14.4141 47.4096 14.4023 47.5424 14.4023H50.8354C50.8744 14.4023 50.9135 14.4063 50.9526 14.4141C50.9916 14.4141 51.0307 14.4141 51.0697 14.4141C51.1244 14.2734 51.1596 14.1211 51.1752 13.957C51.1908 13.707 51.1635 13.4492 51.0932 13.1836C51.0307 12.918 50.9565 12.668 50.8705 12.4336C50.7377 12.0742 50.5502 11.75 50.308 11.4609C50.0737 11.1641 49.8002 10.918 49.4877 10.7227C49.1752 10.5195 48.8315 10.3789 48.4565 10.3008C48.0893 10.2148 47.7143 10.207 47.3315 10.2773C47.1752 10.3633 47.0346 10.4805 46.9096 10.6289C46.7924 10.7695 46.6869 10.9141 46.5932 11.0625Z" fill="#3797D2"/>
<path d="M31.5503 21.5625L28.4063 8.9385H30.5663L32.1503 16.0425C32.2303 16.3785 32.3103 16.7865 32.3903 17.2665C32.4703 17.7305 32.5343 18.1465 32.5823 18.5145C32.6303 18.8665 32.6543 19.0425 32.6543 19.0425H32.7503C32.7503 19.0425 32.7663 18.8825 32.7983 18.5625C32.8303 18.2425 32.8783 17.8505 32.9423 17.3865C33.0063 16.9225 33.0703 16.4745 33.1343 16.0425L34.4063 8.9385H36.6863L37.9823 16.0425C38.0303 16.3625 38.0783 16.6985 38.1263 17.0505C38.1743 17.3865 38.2143 17.7065 38.2463 18.0105C38.2943 18.3145 38.3263 18.5625 38.3423 18.7545C38.3583 18.9465 38.3663 19.0425 38.3663 19.0425H38.4623C38.4623 19.0425 38.4703 18.9545 38.4863 18.7785C38.5183 18.6025 38.5503 18.3705 38.5823 18.0825C38.6303 17.7945 38.6863 17.4745 38.7503 17.1225C38.8143 16.7545 38.8863 16.3945 38.9663 16.0425L40.5503 8.9385H42.5423L39.3983 21.5625H37.2143L35.8943 14.3625C35.8143 13.9305 35.7423 13.4905 35.6783 13.0425C35.6303 12.5945 35.5903 12.2185 35.5583 11.9145C35.5263 11.6105 35.5103 11.4585 35.5103 11.4585H35.4143C35.4143 11.4585 35.3983 11.6105 35.3663 11.9145C35.3343 12.2185 35.2863 12.5945 35.2223 13.0425C35.1743 13.4745 35.1103 13.9145 35.0303 14.3625L33.7343 21.5625H31.5503Z" fill="#3797D2"/>
<path d="M17.3471 21.5625L14.2031 8.9385H16.3631L17.9471 16.0425C18.0271 16.3785 18.1071 16.7865 18.1871 17.2665C18.2671 17.7305 18.3311 18.1465 18.3791 18.5145C18.4271 18.8665 18.4511 19.0425 18.4511 19.0425H18.5471C18.5471 19.0425 18.5631 18.8825 18.5951 18.5625C18.6271 18.2425 18.6751 17.8505 18.7391 17.3865C18.8031 16.9225 18.8671 16.4745 18.9311 16.0425L20.2031 8.9385H22.4831L23.7791 16.0425C23.8271 16.3625 23.8751 16.6985 23.9231 17.0505C23.9711 17.3865 24.0111 17.7065 24.0431 18.0105C24.0911 18.3145 24.1231 18.5625 24.1391 18.7545C24.1551 18.9465 24.1631 19.0425 24.1631 19.0425H24.2591C24.2591 19.0425 24.2671 18.9545 24.2831 18.7785C24.3151 18.6025 24.3471 18.3705 24.3791 18.0825C24.4271 17.7945 24.4831 17.4745 24.5471 17.1225C24.6111 16.7545 24.6831 16.3945 24.7631 16.0425L26.3471 8.9385H28.3391L25.1951 21.5625H23.0111L21.6911 14.3625C21.6111 13.9305 21.5391 13.4905 21.4751 13.0425C21.4271 12.5945 21.3871 12.2185 21.3551 11.9145C21.3231 11.6105 21.3071 11.4585 21.3071 11.4585H21.2111C21.2111 11.4585 21.1951 11.6105 21.1631 11.9145C21.1311 12.2185 21.0831 12.5945 21.0191 13.0425C20.9711 13.4745 20.9071 13.9145 20.8271 14.3625L19.5311 21.5625H17.3471Z" fill="#3797D2"/>
<path d="M3.144 21.5625L0 8.9385H2.16L3.744 16.0425C3.824 16.3785 3.904 16.7865 3.984 17.2665C4.064 17.7305 4.128 18.1465 4.176 18.5145C4.224 18.8665 4.248 19.0425 4.248 19.0425H4.344C4.344 19.0425 4.36 18.8825 4.392 18.5625C4.424 18.2425 4.472 17.8505 4.536 17.3865C4.6 16.9225 4.664 16.4745 4.728 16.0425L6 8.9385H8.28L9.576 16.0425C9.624 16.3625 9.672 16.6985 9.72 17.0505C9.768 17.3865 9.808 17.7065 9.84 18.0105C9.888 18.3145 9.92 18.5625 9.936 18.7545C9.952 18.9465 9.96 19.0425 9.96 19.0425H10.056C10.056 19.0425 10.064 18.9545 10.08 18.7785C10.112 18.6025 10.144 18.3705 10.176 18.0825C10.224 17.7945 10.28 17.4745 10.344 17.1225C10.408 16.7545 10.48 16.3945 10.56 16.0425L12.144 8.9385H14.136L10.992 21.5625H8.808L7.488 14.3625C7.408 13.9305 7.336 13.4905 7.272 13.0425C7.224 12.5945 7.184 12.2185 7.152 11.9145C7.12 11.6105 7.104 11.4585 7.104 11.4585H7.008C7.008 11.4585 6.992 11.6105 6.96 11.9145C6.928 12.2185 6.88 12.5945 6.816 13.0425C6.768 13.4745 6.704 13.9145 6.624 14.3625L5.328 21.5625H3.144Z" fill="#3797D2"/>
</svg>
