<svg width="105" height="28" viewBox="0 0 105 28" fill="none" xmlns="http://www.w3.org/2000/svg">
<path d="M2.9475 21.5625L-3.70783e-08 9.7275H2.025L3.51 16.3875C3.585 16.7025 3.66 17.085 3.735 17.535C3.81 17.97 3.87 18.36 3.915 18.705C3.96 19.035 3.9825 19.2 3.9825 19.2H4.0725C4.0725 19.2 4.0875 19.05 4.1175 18.75C4.1475 18.45 4.1925 18.0825 4.2525 17.6475C4.3125 17.2125 4.3725 16.7925 4.4325 16.3875L5.625 9.7275H7.7625L8.9775 16.3875C9.0225 16.6875 9.0675 17.0025 9.1125 17.3325C9.1575 17.6475 9.195 17.9475 9.225 18.2325C9.27 18.5175 9.3 18.75 9.315 18.93C9.33 19.11 9.3375 19.2 9.3375 19.2H9.4275C9.4275 19.2 9.435 19.1175 9.45 18.9525C9.48 18.7875 9.51 18.57 9.54 18.3C9.585 18.03 9.6375 17.73 9.6975 17.4C9.7575 17.055 9.825 16.7175 9.9 16.3875L11.385 9.7275H13.2525L10.305 21.5625H8.2575L7.02 14.8125C6.945 14.4075 6.8775 13.995 6.8175 13.575C6.7725 13.155 6.735 12.8025 6.705 12.5175C6.675 12.2325 6.66 12.09 6.66 12.09H6.57C6.57 12.09 6.555 12.2325 6.525 12.5175C6.495 12.8025 6.45 13.155 6.39 13.575C6.345 13.98 6.285 14.3925 6.21 14.8125L4.995 21.5625H2.9475ZM16.2629 21.5625L13.3154 9.7275H15.3404L16.8254 16.3875C16.9004 16.7025 16.9754 17.085 17.0504 17.535C17.1254 17.97 17.1854 18.36 17.2304 18.705C17.2754 19.035 17.2979 19.2 17.2979 19.2H17.3879C17.3879 19.2 17.4029 19.05 17.4329 18.75C17.4629 18.45 17.5079 18.0825 17.5679 17.6475C17.6279 17.2125 17.6879 16.7925 17.7479 16.3875L18.9404 9.7275H21.0779L22.2929 16.3875C22.3379 16.6875 22.3829 17.0025 22.4279 17.3325C22.4729 17.6475 22.5104 17.9475 22.5404 18.2325C22.5854 18.5175 22.6154 18.75 22.6304 18.93C22.6454 19.11 22.6529 19.2 22.6529 19.2H22.7429C22.7429 19.2 22.7504 19.1175 22.7654 18.9525C22.7954 18.7875 22.8254 18.57 22.8554 18.3C22.9004 18.03 22.9529 17.73 23.0129 17.4C23.0729 17.055 23.1404 16.7175 23.2154 16.3875L24.7004 9.7275H26.5679L23.6204 21.5625H21.5729L20.3354 14.8125C20.2604 14.4075 20.1929 13.995 20.1329 13.575C20.0879 13.155 20.0504 12.8025 20.0204 12.5175C19.9904 12.2325 19.9754 12.09 19.9754 12.09H19.8854C19.8854 12.09 19.8704 12.2325 19.8404 12.5175C19.8104 12.8025 19.7654 13.155 19.7054 13.575C19.6604 13.98 19.6004 14.3925 19.5254 14.8125L18.3104 21.5625H16.2629ZM29.5784 21.5625L26.6309 9.7275H28.6559L30.1409 16.3875C30.2159 16.7025 30.2909 17.085 30.3659 17.535C30.4409 17.97 30.5009 18.36 30.5459 18.705C30.5909 19.035 30.6134 19.2 30.6134 19.2H30.7034C30.7034 19.2 30.7184 19.05 30.7484 18.75C30.7784 18.45 30.8234 18.0825 30.8834 17.6475C30.9434 17.2125 31.0034 16.7925 31.0634 16.3875L32.2559 9.7275H34.3934L35.6084 16.3875C35.6534 16.6875 35.6984 17.0025 35.7434 17.3325C35.7884 17.6475 35.8259 17.9475 35.8559 18.2325C35.9009 18.5175 35.9309 18.75 35.9459 18.93C35.9609 19.11 35.9684 19.2 35.9684 19.2H36.0584C36.0584 19.2 36.0659 19.1175 36.0809 18.9525C36.1109 18.7875 36.1409 18.57 36.1709 18.3C36.2159 18.03 36.2684 17.73 36.3284 17.4C36.3884 17.055 36.4559 16.7175 36.5309 16.3875L38.0159 9.7275H39.8834L36.9359 21.5625H34.8884L33.6509 14.8125C33.5759 14.4075 33.5084 13.995 33.4484 13.575C33.4034 13.155 33.3659 12.8025 33.3359 12.5175C33.3059 12.2325 33.2909 12.09 33.2909 12.09H33.2009C33.2009 12.09 33.1859 12.2325 33.1559 12.5175C33.1259 12.8025 33.0809 13.155 33.0209 13.575C32.9759 13.98 32.9159 14.3925 32.8409 14.8125L31.6259 21.5625H29.5784ZM40.7558 16.2422C40.748 15.9453 40.7558 15.6602 40.7793 15.3867C40.8027 15.1133 40.8574 14.8359 40.9433 14.5547C40.9589 14.2656 40.9902 13.9805 41.0371 13.6992C41.0839 13.418 41.1582 13.1406 41.2597 12.8672C41.4472 12.3516 41.6855 11.9102 41.9746 11.543C42.2714 11.168 42.6113 10.8477 42.9941 10.582C43.3769 10.3164 43.7949 10.0977 44.248 9.92578C44.7089 9.75391 45.1972 9.60938 45.7129 9.49219C46.041 9.42188 46.3769 9.38281 46.7207 9.375C47.0644 9.36719 47.4004 9.39844 47.7285 9.46875C48.0566 9.53906 48.373 9.65234 48.6777 9.80859C48.9824 9.95703 49.2558 10.1523 49.498 10.3945C49.6855 10.5742 49.8379 10.7695 49.955 10.9805C50.08 11.1836 50.1855 11.4062 50.2714 11.6484C50.3808 11.9219 50.4707 12.2227 50.541 12.5508C50.6191 12.8789 50.6269 13.1953 50.5644 13.5C50.4941 13.8047 50.3261 14.0703 50.0605 14.2969C49.7949 14.5156 49.4863 14.6953 49.1347 14.8359C48.7832 14.9766 48.4238 15.082 48.0566 15.1523C47.6894 15.2227 47.373 15.2617 47.1074 15.2695C46.7871 15.2773 46.4589 15.2812 46.123 15.2812C45.7871 15.2812 45.4511 15.2812 45.1152 15.2812C44.7793 15.2812 44.4511 15.2812 44.1308 15.2812C43.8105 15.2734 43.5097 15.2695 43.2285 15.2695C43.1816 15.2695 43.123 15.2734 43.0527 15.2812C42.9902 15.2812 42.9394 15.2852 42.9004 15.293H42.8418V15.5273C42.8496 16.0195 42.8964 16.5273 42.9824 17.0508C43.0683 17.5742 43.2089 18.0742 43.4043 18.5508C43.6074 19.0273 43.873 19.457 44.2011 19.8398C44.5371 20.2227 44.9589 20.5195 45.4668 20.7305C45.8418 20.8789 46.2168 20.9727 46.5918 21.0117C46.9668 21.043 47.3496 21.0391 47.7402 21C47.9043 20.9062 48.0527 20.793 48.1855 20.6602C48.3261 20.5195 48.455 20.3711 48.5722 20.2148C48.6894 20.0508 48.7949 19.8828 48.8886 19.7109C48.9824 19.5391 49.0683 19.3711 49.1464 19.207L51.2089 18.5742C51.0293 18.9492 50.8144 19.3086 50.5644 19.6523C50.3144 19.9883 50.0175 20.2812 49.6738 20.5312C49.4472 20.7109 49.2011 20.8633 48.9355 20.9883C48.6777 21.1133 48.4121 21.2305 48.1386 21.3398C47.7011 21.5195 47.2402 21.6602 46.7558 21.7617C46.2793 21.8711 45.7988 21.9219 45.3144 21.9141C44.83 21.9062 44.3574 21.8359 43.8964 21.7031C43.4355 21.5703 43.0058 21.3516 42.6074 21.0469C42.2402 20.7656 41.9394 20.4375 41.705 20.0625C41.4707 19.6875 41.2832 19.2891 41.1425 18.8672C41.0097 18.4453 40.9121 18.0117 40.8496 17.5664C40.7949 17.1133 40.7636 16.6719 40.7558 16.2422ZM43.9316 11.0625C43.6504 11.4766 43.4394 11.9102 43.2988 12.3633C43.1582 12.8164 43.0683 13.293 43.0293 13.793C43.0371 13.793 43.041 13.793 43.041 13.793C43.041 13.7852 43.0449 13.7812 43.0527 13.7812C43.0449 13.7969 43.041 13.8086 43.041 13.8164C43.041 13.8242 43.0371 13.832 43.0293 13.8398C43.0918 13.9023 43.1464 13.9648 43.1933 14.0273C43.248 14.0898 43.3066 14.1523 43.3691 14.2148L43.4863 14.2852C43.5175 14.3008 43.5488 14.3203 43.58 14.3438C43.6113 14.3672 43.6425 14.3867 43.6738 14.4023C43.7519 14.418 43.8144 14.4297 43.8613 14.4375C43.9082 14.4375 43.9863 14.4414 44.0957 14.4492C44.2285 14.4648 44.3574 14.4609 44.4824 14.4375C44.6152 14.4141 44.748 14.4023 44.8808 14.4023H48.1738C48.2129 14.4023 48.2519 14.4062 48.291 14.4141C48.33 14.4141 48.3691 14.4141 48.4082 14.4141C48.4629 14.2734 48.498 14.1211 48.5136 13.957C48.5293 13.707 48.5019 13.4492 48.4316 13.1836C48.3691 12.918 48.2949 12.668 48.2089 12.4336C48.0761 12.0742 47.8886 11.75 47.6464 11.4609C47.4121 11.1641 47.1386 10.918 46.8261 10.7227C46.5136 10.5195 46.1699 10.3789 45.7949 10.3008C45.4277 10.2148 45.0527 10.207 44.6699 10.2773C44.5136 10.3633 44.373 10.4805 44.248 10.6289C44.1308 10.7695 44.0254 10.9141 43.9316 11.0625ZM64.8261 9.39844C64.7011 9.51562 64.58 9.63672 64.4629 9.76172C64.3535 9.88672 64.2324 10 64.0996 10.1016C63.8027 10.3281 63.4629 10.5117 63.08 10.6523C62.6972 10.793 62.3222 10.8945 61.955 10.957C61.9082 11.082 61.8925 11.2227 61.9082 11.3789C61.9316 11.5352 61.9668 11.6953 62.0136 11.8594C62.0605 12.0156 62.1074 12.1719 62.1543 12.3281C62.2089 12.4766 62.2441 12.6094 62.2597 12.7266C62.2988 12.9844 62.3144 13.25 62.3066 13.5234C62.2988 13.7891 62.2636 14.0547 62.2011 14.3203C62.1386 14.5781 62.0527 14.8281 61.9433 15.0703C61.8339 15.3125 61.6972 15.5391 61.5332 15.75C61.2832 16.0703 60.9746 16.3477 60.6074 16.582C60.248 16.8164 59.8613 17.0156 59.4472 17.1797C59.041 17.3359 58.623 17.4609 58.1933 17.5547C57.7636 17.6406 57.3574 17.6953 56.9746 17.7188C56.873 17.7266 56.7558 17.7344 56.623 17.7422C56.498 17.7422 56.3652 17.7383 56.2246 17.7305C56.0918 17.8711 55.9668 18.0117 55.8496 18.1523C55.7324 18.293 55.6347 18.4414 55.5566 18.5977C55.4863 18.7461 55.4472 18.9023 55.4394 19.0664C55.4316 19.2227 55.4746 19.3867 55.5683 19.5586C55.6855 19.7852 55.8652 19.957 56.1074 20.0742C56.3574 20.1836 56.6269 20.2656 56.916 20.3203C57.2129 20.3672 57.5058 20.3945 57.7949 20.4023C58.0918 20.4023 58.3457 20.4023 58.5566 20.4023C58.8457 20.4023 59.1425 20.4023 59.4472 20.4023C59.7519 20.3945 60.0527 20.4023 60.3496 20.4258C60.6543 20.4414 60.9511 20.4805 61.2402 20.543C61.5371 20.5977 61.8222 20.6836 62.0957 20.8008C62.4863 20.9648 62.8027 21.168 63.0449 21.4102C63.2871 21.6445 63.4668 21.9102 63.5839 22.207C63.7011 22.5039 63.7597 22.8203 63.7597 23.1562C63.7597 23.5 63.7129 23.8594 63.6191 24.2344C63.5644 24.4375 63.5058 24.6328 63.4433 24.8203C63.3886 25.0078 63.3027 25.1953 63.1855 25.3828C62.9433 25.7656 62.6308 26.0859 62.248 26.3438C61.8652 26.6094 61.4746 26.8359 61.0761 27.0234C60.6074 27.25 60.1152 27.4375 59.5996 27.5859C59.0839 27.7422 58.5605 27.8477 58.0293 27.9023C57.5058 27.9648 56.9785 27.9648 56.4472 27.9023C55.9238 27.8477 55.416 27.7148 54.9238 27.5039C54.7129 27.418 54.5019 27.3047 54.291 27.1641C54.0879 27.0312 53.9004 26.8867 53.7285 26.7305C53.4004 26.418 53.1699 26.0742 53.0371 25.6992C52.9043 25.332 52.8535 24.957 52.8847 24.5742C52.916 24.1992 53.0254 23.832 53.2129 23.4727C53.4004 23.1211 53.6582 22.8047 53.9863 22.5234C54.08 22.4453 54.1777 22.375 54.2793 22.3125C54.3886 22.25 54.498 22.1875 54.6074 22.125C54.7402 22.0156 54.8496 21.8711 54.9355 21.6914C55.0214 21.5117 55.1191 21.3477 55.2285 21.1992C55.0254 21.1758 54.8222 21.1406 54.6191 21.0938C54.416 21.0391 54.2285 20.9648 54.0566 20.8711C53.8925 20.7773 53.7519 20.6602 53.6347 20.5195C53.5175 20.3711 53.4355 20.1914 53.3886 19.9805C53.3339 19.7148 53.3613 19.4727 53.4707 19.2539C53.5879 19.0352 53.7363 18.8242 53.916 18.6211C54.1035 18.418 54.2949 18.2227 54.4902 18.0352C54.6855 17.8398 54.8339 17.6406 54.9355 17.4375L55.041 17.4023C54.8847 17.293 54.748 17.1953 54.6308 17.1094C54.5214 17.0234 54.4199 16.9336 54.3261 16.8398C54.2324 16.7461 54.1386 16.6406 54.0449 16.5234C53.9589 16.4062 53.8691 16.2617 53.7754 16.0898C53.5097 15.6211 53.3418 15.1172 53.2714 14.5781C53.2011 14.0391 53.2246 13.5117 53.3418 12.9961C53.4668 12.4805 53.6816 12.0078 53.9863 11.5781C54.291 11.1406 54.6894 10.793 55.1816 10.5352C55.6816 10.2617 56.1855 10.0469 56.6933 9.89062C57.2089 9.73438 57.748 9.625 58.3105 9.5625C58.6699 9.52344 59.0371 9.53516 59.4121 9.59766C59.7871 9.65234 60.1347 9.75781 60.455 9.91406C60.6347 10 60.8027 10.1016 60.9589 10.2188C61.123 10.3359 61.2871 10.4492 61.4511 10.5586L61.955 10.4062C62.041 10.3828 62.1269 10.3594 62.2129 10.3359C62.3066 10.3125 62.3964 10.293 62.4824 10.2773L62.8457 9.92578L64.8261 9.39844ZM59.5996 21.457C59.1464 21.332 58.6855 21.2734 58.2168 21.2812C57.748 21.2812 57.2793 21.2812 56.8105 21.2812C56.7168 21.4141 56.6074 21.5352 56.4824 21.6445C56.3652 21.7617 56.1933 21.8867 55.9668 22.0195L55.8964 22.0547C55.6074 22.3281 55.3808 22.6289 55.2168 22.957C55.0605 23.293 54.9746 23.6328 54.9589 23.9766C54.9433 24.3203 55.0019 24.6602 55.1347 24.9961C55.2675 25.3398 55.4863 25.6562 55.791 25.9453C56.1269 26.2656 56.5136 26.5156 56.9511 26.6953C57.3964 26.875 57.8457 26.9961 58.2988 27.0586C58.4238 27.0742 58.5761 27.0859 58.7558 27.0938C58.9355 27.1094 59.1191 27.1133 59.3066 27.1055C59.4941 27.0977 59.6738 27.0742 59.8457 27.0352C60.0175 26.9961 60.1621 26.9336 60.2793 26.8477C60.4355 26.7305 60.5683 26.6211 60.6777 26.5195C60.7871 26.418 60.8847 26.3086 60.9707 26.1914C61.0566 26.082 61.1347 25.957 61.205 25.8164C61.2754 25.6836 61.3496 25.5273 61.4277 25.3477C61.4668 25.2461 61.498 25.1328 61.5214 25.0078C61.5527 24.8906 61.58 24.7773 61.6035 24.668C61.7597 23.8789 61.6699 23.2031 61.3339 22.6406C61.0058 22.0781 60.4277 21.6836 59.5996 21.457ZM60.1738 13.4414C60.1504 13.3008 60.1113 13.1562 60.0566 13.0078C60.0019 12.8516 59.9511 12.6953 59.9043 12.5391C59.8574 12.375 59.8261 12.2148 59.8105 12.0586C59.7949 11.9023 59.8144 11.7539 59.8691 11.6133C59.6269 11.5195 59.4082 11.3984 59.2129 11.25C59.0254 11.0938 58.8222 10.9492 58.6035 10.8164C58.291 10.6367 57.9511 10.5195 57.5839 10.4648C57.2168 10.4102 56.8574 10.4102 56.5058 10.4648C56.3418 10.6211 56.1972 10.7734 56.0722 10.9219C55.955 11.0703 55.8496 11.2266 55.7558 11.3906C55.6699 11.5469 55.5957 11.7188 55.5332 11.9062C55.4707 12.0859 55.4199 12.293 55.3808 12.5273C55.2793 13.1523 55.3105 13.7812 55.4746 14.4141C55.6386 15.0469 55.9472 15.5977 56.4004 16.0664C56.5097 16.1758 56.6269 16.2773 56.7519 16.3711C56.8847 16.457 57.0175 16.5469 57.1504 16.6406C57.2441 16.7109 57.3535 16.7617 57.4785 16.793C57.6035 16.8242 57.7324 16.8477 57.8652 16.8633C57.998 16.8711 58.1308 16.875 58.2636 16.875C58.3964 16.8672 58.5175 16.8594 58.6269 16.8516C58.6425 16.8516 58.6855 16.8516 58.7558 16.8516C58.8339 16.8438 58.9043 16.8359 58.9668 16.8281C59.2246 16.6328 59.4394 16.4062 59.6113 16.1484C59.7832 15.8906 59.9199 15.6133 60.0214 15.3164C60.123 15.0195 60.1855 14.7148 60.2089 14.4023C60.2324 14.082 60.2207 13.7617 60.1738 13.4414ZM63.4316 10.1016C63.4238 10.1016 63.416 10.1055 63.4082 10.1133C63.4238 10.1133 63.4316 10.1133 63.4316 10.1133C63.4394 10.1055 63.4394 10.1016 63.4316 10.1016ZM77.3183 9.39844C77.1933 9.51562 77.0722 9.63672 76.955 9.76172C76.8457 9.88672 76.7246 10 76.5918 10.1016C76.2949 10.3281 75.955 10.5117 75.5722 10.6523C75.1894 10.793 74.8144 10.8945 74.4472 10.957C74.4004 11.082 74.3847 11.2227 74.4004 11.3789C74.4238 11.5352 74.4589 11.6953 74.5058 11.8594C74.5527 12.0156 74.5996 12.1719 74.6464 12.3281C74.7011 12.4766 74.7363 12.6094 74.7519 12.7266C74.791 12.9844 74.8066 13.25 74.7988 13.5234C74.791 13.7891 74.7558 14.0547 74.6933 14.3203C74.6308 14.5781 74.5449 14.8281 74.4355 15.0703C74.3261 15.3125 74.1894 15.5391 74.0254 15.75C73.7754 16.0703 73.4668 16.3477 73.0996 16.582C72.7402 16.8164 72.3535 17.0156 71.9394 17.1797C71.5332 17.3359 71.1152 17.4609 70.6855 17.5547C70.2558 17.6406 69.8496 17.6953 69.4668 17.7188C69.3652 17.7266 69.248 17.7344 69.1152 17.7422C68.9902 17.7422 68.8574 17.7383 68.7168 17.7305C68.5839 17.8711 68.4589 18.0117 68.3418 18.1523C68.2246 18.293 68.1269 18.4414 68.0488 18.5977C67.9785 18.7461 67.9394 18.9023 67.9316 19.0664C67.9238 19.2227 67.9668 19.3867 68.0605 19.5586C68.1777 19.7852 68.3574 19.957 68.5996 20.0742C68.8496 20.1836 69.1191 20.2656 69.4082 20.3203C69.705 20.3672 69.998 20.3945 70.2871 20.4023C70.5839 20.4023 70.8379 20.4023 71.0488 20.4023C71.3379 20.4023 71.6347 20.4023 71.9394 20.4023C72.2441 20.3945 72.5449 20.4023 72.8418 20.4258C73.1464 20.4414 73.4433 20.4805 73.7324 20.543C74.0293 20.5977 74.3144 20.6836 74.5879 20.8008C74.9785 20.9648 75.2949 21.168 75.5371 21.4102C75.7793 21.6445 75.9589 21.9102 76.0761 22.207C76.1933 22.5039 76.2519 22.8203 76.2519 23.1562C76.2519 23.5 76.205 23.8594 76.1113 24.2344C76.0566 24.4375 75.998 24.6328 75.9355 24.8203C75.8808 25.0078 75.7949 25.1953 75.6777 25.3828C75.4355 25.7656 75.123 26.0859 74.7402 26.3438C74.3574 26.6094 73.9668 26.8359 73.5683 27.0234C73.0996 27.25 72.6074 27.4375 72.0918 27.5859C71.5761 27.7422 71.0527 27.8477 70.5214 27.9023C69.998 27.9648 69.4707 27.9648 68.9394 27.9023C68.416 27.8477 67.9082 27.7148 67.416 27.5039C67.205 27.418 66.9941 27.3047 66.7832 27.1641C66.58 27.0312 66.3925 26.8867 66.2207 26.7305C65.8925 26.418 65.6621 26.0742 65.5293 25.6992C65.3964 25.332 65.3457 24.957 65.3769 24.5742C65.4082 24.1992 65.5175 23.832 65.705 23.4727C65.8925 23.1211 66.1504 22.8047 66.4785 22.5234C66.5722 22.4453 66.6699 22.375 66.7714 22.3125C66.8808 22.25 66.9902 22.1875 67.0996 22.125C67.2324 22.0156 67.3418 21.8711 67.4277 21.6914C67.5136 21.5117 67.6113 21.3477 67.7207 21.1992C67.5175 21.1758 67.3144 21.1406 67.1113 21.0938C66.9082 21.0391 66.7207 20.9648 66.5488 20.8711C66.3847 20.7773 66.2441 20.6602 66.1269 20.5195C66.0097 20.3711 65.9277 20.1914 65.8808 19.9805C65.8261 19.7148 65.8535 19.4727 65.9629 19.2539C66.08 19.0352 66.2285 18.8242 66.4082 18.6211C66.5957 18.418 66.7871 18.2227 66.9824 18.0352C67.1777 17.8398 67.3261 17.6406 67.4277 17.4375L67.5332 17.4023C67.3769 17.293 67.2402 17.1953 67.123 17.1094C67.0136 17.0234 66.9121 16.9336 66.8183 16.8398C66.7246 16.7461 66.6308 16.6406 66.5371 16.5234C66.4511 16.4062 66.3613 16.2617 66.2675 16.0898C66.0019 15.6211 65.8339 15.1172 65.7636 14.5781C65.6933 14.0391 65.7168 13.5117 65.8339 12.9961C65.9589 12.4805 66.1738 12.0078 66.4785 11.5781C66.7832 11.1406 67.1816 10.793 67.6738 10.5352C68.1738 10.2617 68.6777 10.0469 69.1855 9.89062C69.7011 9.73438 70.2402 9.625 70.8027 9.5625C71.1621 9.52344 71.5293 9.53516 71.9043 9.59766C72.2793 9.65234 72.6269 9.75781 72.9472 9.91406C73.1269 10 73.2949 10.1016 73.4511 10.2188C73.6152 10.3359 73.7793 10.4492 73.9433 10.5586L74.4472 10.4062C74.5332 10.3828 74.6191 10.3594 74.705 10.3359C74.7988 10.3125 74.8886 10.293 74.9746 10.2773L75.3379 9.92578L77.3183 9.39844ZM72.0918 21.457C71.6386 21.332 71.1777 21.2734 70.7089 21.2812C70.2402 21.2812 69.7714 21.2812 69.3027 21.2812C69.2089 21.4141 69.0996 21.5352 68.9746 21.6445C68.8574 21.7617 68.6855 21.8867 68.4589 22.0195L68.3886 22.0547C68.0996 22.3281 67.873 22.6289 67.7089 22.957C67.5527 23.293 67.4668 23.6328 67.4511 23.9766C67.4355 24.3203 67.4941 24.6602 67.6269 24.9961C67.7597 25.3398 67.9785 25.6562 68.2832 25.9453C68.6191 26.2656 69.0058 26.5156 69.4433 26.6953C69.8886 26.875 70.3379 26.9961 70.791 27.0586C70.916 27.0742 71.0683 27.0859 71.248 27.0938C71.4277 27.1094 71.6113 27.1133 71.7988 27.1055C71.9863 27.0977 72.166 27.0742 72.3379 27.0352C72.5097 26.9961 72.6543 26.9336 72.7714 26.8477C72.9277 26.7305 73.0605 26.6211 73.1699 26.5195C73.2793 26.418 73.3769 26.3086 73.4629 26.1914C73.5488 26.082 73.6269 25.957 73.6972 25.8164C73.7675 25.6836 73.8418 25.5273 73.9199 25.3477C73.9589 25.2461 73.9902 25.1328 74.0136 25.0078C74.0449 24.8906 74.0722 24.7773 74.0957 24.668C74.2519 23.8789 74.1621 23.2031 73.8261 22.6406C73.498 22.0781 72.9199 21.6836 72.0918 21.457ZM72.666 13.4414C72.6425 13.3008 72.6035 13.1562 72.5488 13.0078C72.4941 12.8516 72.4433 12.6953 72.3964 12.5391C72.3496 12.375 72.3183 12.2148 72.3027 12.0586C72.2871 11.9023 72.3066 11.7539 72.3613 11.6133C72.1191 11.5195 71.9004 11.3984 71.705 11.25C71.5175 11.0938 71.3144 10.9492 71.0957 10.8164C70.7832 10.6367 70.4433 10.5195 70.0761 10.4648C69.7089 10.4102 69.3496 10.4102 68.998 10.4648C68.8339 10.6211 68.6894 10.7734 68.5644 10.9219C68.4472 11.0703 68.3418 11.2266 68.248 11.3906C68.1621 11.5469 68.0879 11.7188 68.0254 11.9062C67.9629 12.0859 67.9121 12.293 67.873 12.5273C67.7714 13.1523 67.8027 13.7812 67.9668 14.4141C68.1308 15.0469 68.4394 15.5977 68.8925 16.0664C69.0019 16.1758 69.1191 16.2773 69.2441 16.3711C69.3769 16.457 69.5097 16.5469 69.6425 16.6406C69.7363 16.7109 69.8457 16.7617 69.9707 16.793C70.0957 16.8242 70.2246 16.8477 70.3574 16.8633C70.4902 16.8711 70.623 16.875 70.7558 16.875C70.8886 16.8672 71.0097 16.8594 71.1191 16.8516C71.1347 16.8516 71.1777 16.8516 71.248 16.8516C71.3261 16.8438 71.3964 16.8359 71.4589 16.8281C71.7168 16.6328 71.9316 16.4062 72.1035 16.1484C72.2754 15.8906 72.4121 15.6133 72.5136 15.3164C72.6152 15.0195 72.6777 14.7148 72.7011 14.4023C72.7246 14.082 72.7129 13.7617 72.666 13.4414ZM75.9238 10.1016C75.916 10.1016 75.9082 10.1055 75.9004 10.1133C75.916 10.1133 75.9238 10.1133 75.9238 10.1133C75.9316 10.1055 75.9316 10.1016 75.9238 10.1016ZM78.5254 9.53906C78.7129 9.53906 78.8964 9.53516 79.0761 9.52734C79.2636 9.51953 79.4472 9.51562 79.6269 9.51562C79.7363 9.51562 79.8418 9.51953 79.9433 9.52734C80.0449 9.53516 80.1464 9.54688 80.248 9.5625C80.3652 9.57812 80.4824 9.60547 80.5996 9.64453C80.7168 9.68359 80.8222 9.73828 80.916 9.80859C81.0332 9.88672 81.1191 9.96094 81.1738 10.0312C81.2363 10.0938 81.2793 10.1641 81.3027 10.2422C81.3261 10.3125 81.3379 10.3945 81.3379 10.4883C81.3379 10.5742 81.3379 10.6797 81.3379 10.8047V19.2891C81.3379 19.3984 81.3379 19.5078 81.3379 19.6172C81.3457 19.7188 81.3261 19.8242 81.2793 19.9336C81.2636 19.9648 81.2558 19.9805 81.2558 19.9805L81.3379 19.9453C81.5175 20.1094 81.705 20.2383 81.9004 20.332C82.0957 20.4258 82.2988 20.5 82.5097 20.5547C82.7207 20.6016 82.9355 20.6367 83.1543 20.6602C83.373 20.6758 83.5996 20.6875 83.8339 20.6953L81.9941 21.5508C81.5722 21.5352 81.1699 21.5 80.7871 21.4453C80.4121 21.3828 80.0488 21.25 79.6972 21.0469C79.2363 21.2266 78.7675 21.3555 78.291 21.4336C77.8222 21.5117 77.3379 21.5508 76.8379 21.5508C77.1113 21.4102 77.3847 21.2695 77.6582 21.1289C77.9394 20.9805 78.2168 20.832 78.4902 20.6836C78.6308 20.6836 78.7402 20.6875 78.8183 20.6953C78.9043 20.6953 79.0136 20.6875 79.1464 20.6719C79.2089 20.5781 79.2402 20.4766 79.2402 20.3672C79.248 20.2578 79.2519 20.1367 79.2519 20.0039V11.5195C79.2519 11.3633 79.2441 11.2305 79.2285 11.1211C79.2207 11.0039 79.1894 10.9062 79.1347 10.8281C79.0879 10.7422 79.0097 10.6719 78.9004 10.6172C78.7988 10.5547 78.6582 10.4961 78.4785 10.4414C78.3925 10.418 78.3066 10.4023 78.2207 10.3945C78.1425 10.3867 78.0605 10.3828 77.9746 10.3828C77.7871 10.3828 77.5996 10.3867 77.4121 10.3945C77.2324 10.4023 77.0527 10.4062 76.873 10.4062L78.5254 9.53906ZM84.6191 0L81.2441 6.90234H79.3105L79.2636 5.00391L84.6191 0ZM84.4902 16.2422C84.4824 15.9453 84.4902 15.6602 84.5136 15.3867C84.5371 15.1133 84.5918 14.8359 84.6777 14.5547C84.6933 14.2656 84.7246 13.9805 84.7714 13.6992C84.8183 13.418 84.8925 13.1406 84.9941 12.8672C85.1816 12.3516 85.4199 11.9102 85.7089 11.543C86.0058 11.168 86.3457 10.8477 86.7285 10.582C87.1113 10.3164 87.5293 10.0977 87.9824 9.92578C88.4433 9.75391 88.9316 9.60938 89.4472 9.49219C89.7754 9.42188 90.1113 9.38281 90.455 9.375C90.7988 9.36719 91.1347 9.39844 91.4629 9.46875C91.791 9.53906 92.1074 9.65234 92.4121 9.80859C92.7168 9.95703 92.9902 10.1523 93.2324 10.3945C93.4199 10.5742 93.5722 10.7695 93.6894 10.9805C93.8144 11.1836 93.9199 11.4062 94.0058 11.6484C94.1152 11.9219 94.205 12.2227 94.2754 12.5508C94.3535 12.8789 94.3613 13.1953 94.2988 13.5C94.2285 13.8047 94.0605 14.0703 93.7949 14.2969C93.5293 14.5156 93.2207 14.6953 92.8691 14.8359C92.5175 14.9766 92.1582 15.082 91.791 15.1523C91.4238 15.2227 91.1074 15.2617 90.8418 15.2695C90.5214 15.2773 90.1933 15.2812 89.8574 15.2812C89.5214 15.2812 89.1855 15.2812 88.8496 15.2812C88.5136 15.2812 88.1855 15.2812 87.8652 15.2812C87.5449 15.2734 87.2441 15.2695 86.9629 15.2695C86.916 15.2695 86.8574 15.2734 86.7871 15.2812C86.7246 15.2812 86.6738 15.2852 86.6347 15.293H86.5761V15.5273C86.5839 16.0195 86.6308 16.5273 86.7168 17.0508C86.8027 17.5742 86.9433 18.0742 87.1386 18.5508C87.3418 19.0273 87.6074 19.457 87.9355 19.8398C88.2714 20.2227 88.6933 20.5195 89.2011 20.7305C89.5761 20.8789 89.9511 20.9727 90.3261 21.0117C90.7011 21.043 91.0839 21.0391 91.4746 21C91.6386 20.9062 91.7871 20.793 91.9199 20.6602C92.0605 20.5195 92.1894 20.3711 92.3066 20.2148C92.4238 20.0508 92.5293 19.8828 92.623 19.7109C92.7168 19.5391 92.8027 19.3711 92.8808 19.207L94.9433 18.5742C94.7636 18.9492 94.5488 19.3086 94.2988 19.6523C94.0488 19.9883 93.7519 20.2812 93.4082 20.5312C93.1816 20.7109 92.9355 20.8633 92.6699 20.9883C92.4121 21.1133 92.1464 21.2305 91.873 21.3398C91.4355 21.5195 90.9746 21.6602 90.4902 21.7617C90.0136 21.8711 89.5332 21.9219 89.0488 21.9141C88.5644 21.9062 88.0918 21.8359 87.6308 21.7031C87.1699 21.5703 86.7402 21.3516 86.3418 21.0469C85.9746 20.7656 85.6738 20.4375 85.4394 20.0625C85.205 19.6875 85.0175 19.2891 84.8769 18.8672C84.7441 18.4453 84.6464 18.0117 84.5839 17.5664C84.5293 17.1133 84.498 16.6719 84.4902 16.2422ZM87.666 11.0625C87.3847 11.4766 87.1738 11.9102 87.0332 12.3633C86.8925 12.8164 86.8027 13.293 86.7636 13.793C86.7714 13.793 86.7754 13.793 86.7754 13.793C86.7754 13.7852 86.7793 13.7812 86.7871 13.7812C86.7793 13.7969 86.7754 13.8086 86.7754 13.8164C86.7754 13.8242 86.7714 13.832 86.7636 13.8398C86.8261 13.9023 86.8808 13.9648 86.9277 14.0273C86.9824 14.0898 87.041 14.1523 87.1035 14.2148L87.2207 14.2852C87.2519 14.3008 87.2832 14.3203 87.3144 14.3438C87.3457 14.3672 87.3769 14.3867 87.4082 14.4023C87.4863 14.418 87.5488 14.4297 87.5957 14.4375C87.6425 14.4375 87.7207 14.4414 87.83 14.4492C87.9629 14.4648 88.0918 14.4609 88.2168 14.4375C88.3496 14.4141 88.4824 14.4023 88.6152 14.4023H91.9082C91.9472 14.4023 91.9863 14.4062 92.0254 14.4141C92.0644 14.4141 92.1035 14.4141 92.1425 14.4141C92.1972 14.2734 92.2324 14.1211 92.248 13.957C92.2636 13.707 92.2363 13.4492 92.166 13.1836C92.1035 12.918 92.0293 12.668 91.9433 12.4336C91.8105 12.0742 91.623 11.75 91.3808 11.4609C91.1464 11.1641 90.873 10.918 90.5605 10.7227C90.248 10.5195 89.9043 10.3789 89.5293 10.3008C89.1621 10.2148 88.7871 10.207 88.4043 10.2773C88.248 10.3633 88.1074 10.4805 87.9824 10.6289C87.8652 10.7695 87.7597 10.9141 87.666 11.0625ZM97.8613 17.4492C97.9863 17.7773 98.0605 18.0898 98.0839 18.3867C98.1152 18.6758 98.1621 18.9492 98.2246 19.207C98.2871 19.457 98.4004 19.6953 98.5644 19.9219C98.7285 20.1484 99.0136 20.3594 99.4199 20.5547C99.5136 20.6016 99.5957 20.6406 99.666 20.6719C99.7363 20.7031 99.8027 20.7344 99.8652 20.7656C99.9355 20.7891 100.006 20.8125 100.076 20.8359C100.154 20.8594 100.24 20.8828 100.334 20.9062C100.584 20.9688 100.834 21.0156 101.084 21.0469C101.334 21.0703 101.584 21.0625 101.834 21.0234C102.006 20.9141 102.158 20.7383 102.291 20.4961C102.432 20.2461 102.541 19.9766 102.619 19.6875C102.705 19.3984 102.76 19.1133 102.783 18.832C102.814 18.543 102.811 18.3047 102.771 18.1172C102.693 17.7266 102.506 17.3711 102.209 17.0508C101.936 16.7617 101.631 16.5312 101.295 16.3594C100.959 16.1797 100.611 16.0234 100.252 15.8906C99.8925 15.75 99.5293 15.6211 99.1621 15.5039C98.8027 15.3789 98.455 15.2266 98.1191 15.0469C97.9472 14.9531 97.7793 14.8438 97.6152 14.7188C97.4511 14.5938 97.2988 14.457 97.1582 14.3086C97.0254 14.1523 96.916 13.9844 96.83 13.8047C96.7441 13.625 96.6894 13.4297 96.666 13.2188C96.6504 13.0234 96.6582 12.8203 96.6894 12.6094C96.7285 12.3984 96.7714 12.1992 96.8183 12.0117C96.8964 11.6758 97.0254 11.3828 97.205 11.1328C97.3847 10.8828 97.5957 10.668 97.8379 10.4883C98.0879 10.3008 98.3574 10.1406 98.6464 10.0078C98.9355 9.86719 99.2324 9.73828 99.5371 9.62109C99.9277 9.47266 100.35 9.35547 100.803 9.26953C101.256 9.17578 101.709 9.14062 102.162 9.16406C102.615 9.1875 103.045 9.28125 103.451 9.44531C103.865 9.60156 104.221 9.85547 104.518 10.207C104.611 10.3164 104.678 10.4531 104.717 10.6172C104.764 10.7812 104.795 10.9531 104.811 11.1328C104.834 11.3125 104.842 11.4922 104.834 11.6719C104.834 11.8438 104.834 11.9922 104.834 12.1172L102.748 12.832C102.748 12.5586 102.744 12.3008 102.736 12.0586C102.728 11.8164 102.689 11.5938 102.619 11.3906C102.557 11.1797 102.451 10.9883 102.303 10.8164C102.162 10.6445 101.951 10.4883 101.67 10.3477C101.545 10.2852 101.389 10.2266 101.201 10.1719C101.014 10.1172 100.85 10.082 100.709 10.0664C100.537 10.043 100.357 10.0312 100.17 10.0312C99.9902 10.0234 99.8144 10.0391 99.6425 10.0781C99.4707 10.2109 99.3183 10.3906 99.1855 10.6172C99.0605 10.8359 98.9589 11.0742 98.8808 11.332C98.8027 11.582 98.7558 11.8359 98.7402 12.0938C98.7246 12.3516 98.748 12.582 98.8105 12.7852C98.8886 13.0273 99.0058 13.2422 99.1621 13.4297C99.3183 13.6172 99.4941 13.7891 99.6894 13.9453C99.955 14.1484 100.271 14.3242 100.639 14.4727C101.014 14.6211 101.4 14.7695 101.799 14.918C102.197 15.0586 102.588 15.2109 102.971 15.375C103.353 15.5391 103.693 15.7383 103.99 15.9727C104.287 16.1992 104.518 16.4766 104.682 16.8047C104.846 17.125 104.912 17.5156 104.881 17.9766C104.865 18.2031 104.83 18.4336 104.775 18.668C104.721 18.8945 104.658 19.1211 104.588 19.3477C104.518 19.5742 104.42 19.7773 104.295 19.957C104.17 20.1367 104.025 20.3008 103.861 20.4492C103.697 20.5898 103.518 20.7188 103.322 20.8359C103.127 20.9531 102.924 21.0625 102.713 21.1641C102.252 21.3828 101.756 21.5586 101.225 21.6914C100.701 21.832 100.17 21.9023 99.6308 21.9023C99.0996 21.9102 98.58 21.8359 98.0722 21.6797C97.5644 21.5234 97.1074 21.2617 96.7011 20.8945C96.5058 20.7227 96.3613 20.5312 96.2675 20.3203C96.1816 20.1016 96.1152 19.875 96.0683 19.6406C96.0293 19.4062 95.9941 19.1719 95.9629 18.9375C95.9316 18.6953 95.8769 18.4609 95.7988 18.2344L97.8613 17.4492Z" fill="#3797D2"/>
</svg>
